{"glyphs":{"0":{"ha":652,"x_min":-40,"x_max":692,"o":"m 372 970 l 397 964 l 442 970 q 564 867 466 970 q 583 893 583 867 q 596 880 596 891 l 577 848 l 590 848 q 603 867 590 867 l 629 867 l 616 848 l 616 842 q 686 682 656 842 q 692 604 686 624 q 564 199 656 350 q 410 64 425 64 q 217 0 353 19 q -40 353 2 0 q 5 559 -23 559 q 63 745 26 709 q 217 926 63 783 l 230 926 l 230 919 l 191 867 l 198 867 q 378 945 286 945 l 365 964 q 372 970 372 964 m 564 913 l 583 913 l 583 893 l 577 893 q 564 906 564 893 l 564 913 m 114 900 l 121 900 q 134 887 134 898 l 134 880 q 101 861 134 869 l 95 874 l 95 880 q 114 900 95 890 m 570 836 l 570 829 q 596 791 588 791 l 596 823 q 583 836 596 836 l 570 836 m 551 829 q 532 804 542 804 q 526 810 526 804 q 487 797 505 797 l 442 810 l 378 810 q 178 610 306 810 l 185 597 q 172 585 185 585 q 165 591 172 591 l 172 559 q 140 463 161 540 q 146 340 146 393 l 146 321 l 153 289 q 134 251 142 289 q 191 161 157 195 l 204 167 q 281 141 208 167 l 288 141 q 442 251 336 141 q 532 437 478 308 l 526 450 q 545 495 538 469 q 538 514 538 507 q 551 527 551 514 l 551 591 q 570 617 564 617 l 564 630 q 590 688 576 688 l 596 688 l 596 591 l 603 591 l 603 675 l 596 707 q 609 726 609 707 q 551 829 564 825 m 146 251 l 165 251 q 191 193 165 230 q 178 180 191 180 q 146 251 146 235 z "},"1":{"ha":455,"x_min":0,"x_max":429,"o":"m 362 980 l 423 953 l 416 920 l 416 880 q 429 806 416 831 q 376 416 410 590 l 362 416 l 369 429 q 362 510 362 477 l 356 510 q 302 181 356 348 l 289 181 q 295 235 289 209 l 295 248 l 289 248 q 262 168 277 168 l 255 168 l 262 195 l 262 208 l 255 208 q 222 74 255 172 q 208 47 222 47 q 201 54 208 54 q 188 0 201 43 l 168 0 q 155 20 155 0 q 188 229 188 191 l 188 255 l 181 255 q 155 94 181 215 l 141 94 l 141 100 q 148 168 141 109 l 141 181 q 255 792 215 606 l 174 792 q 141 772 141 792 l 81 772 q 33 799 45 772 q 40 806 33 806 l 27 832 q 33 839 33 832 q 14 852 14 839 q 27 866 27 852 l 14 866 l 14 880 l 27 880 l 27 886 q 0 899 0 886 q 60 920 60 907 q 20 947 36 920 q 81 966 57 966 q 295 960 239 960 l 302 973 l 315 966 l 342 966 l 362 980 m 174 846 l 174 839 l 215 839 l 215 846 l 174 846 m 275 416 l 275 376 l 282 376 l 282 416 l 275 416 m 269 369 l 269 342 l 275 342 l 275 369 l 269 369 m 195 322 l 195 295 l 201 295 l 201 322 l 195 322 m 302 309 l 302 282 l 309 282 l 309 309 l 302 309 z "},"2":{"ha":547,"x_min":0,"x_max":543,"o":"m 169 974 q 518 793 414 974 q 543 736 532 777 q 506 625 530 669 q 518 612 518 623 q 262 337 477 551 q 256 343 262 343 q 325 431 301 431 l 325 444 q 218 306 262 388 q 175 243 193 306 q 162 218 162 243 q 294 144 250 147 q 406 362 406 144 q 431 418 422 418 q 468 275 468 378 l 487 287 q 493 281 487 281 q 475 187 487 265 l 487 187 q 393 43 439 43 l 393 37 l 406 37 l 406 25 q 312 12 347 12 l 300 12 l 256 19 l 262 6 l 262 0 l 256 0 l 231 25 q 218 12 231 12 q 150 50 191 12 l 138 43 q 106 56 138 56 l 106 68 l 119 62 l 119 75 q 62 138 81 75 q 6 243 6 188 q 131 444 6 370 q 243 543 199 489 l 237 543 q 212 518 237 533 l 206 530 q 368 687 368 672 l 368 693 l 337 662 l 337 674 l 381 736 q 275 805 381 769 q 187 836 275 825 q 162 830 176 830 l 150 836 l 150 830 l 206 743 q 200 724 200 731 q 212 711 212 722 q 200 699 212 699 l 206 687 l 206 674 l 162 649 q 0 849 0 739 q 68 930 0 898 q 113 962 73 945 l 144 955 q 169 974 144 970 m 431 393 l 431 343 l 437 343 l 437 393 l 431 393 m 425 337 l 425 312 l 431 312 l 431 337 l 425 337 m 412 100 q 387 81 412 81 l 387 75 l 399 75 l 418 100 l 412 100 z "},"3":{"ha":584,"x_min":-33,"x_max":580,"o":"m 464 964 q 554 926 549 937 q 580 842 574 842 q 515 526 580 732 q 496 493 496 526 l 483 493 l 490 526 l 490 545 l 483 545 q 393 416 483 471 q 347 377 393 410 l 334 377 l 367 416 l 361 416 q 270 338 300 338 l 270 332 l 277 332 q 522 383 345 383 q 554 326 554 333 q 515 197 548 233 q 490 151 515 151 l 490 138 q 528 74 528 94 l 528 54 q 296 3 528 18 q 244 9 280 3 q 161 3 202 3 q -26 54 -26 23 l -20 67 l -33 67 l -33 74 q 5 80 -4 74 l 83 67 l 96 67 l 96 74 q 25 87 71 74 l 25 93 l 31 106 q 25 113 25 106 q 57 138 57 125 l 161 138 l 161 144 l 134 144 l 134 157 l 302 157 l 334 164 l 334 157 q 374 197 374 157 l 374 203 l 367 203 q 147 197 282 203 q 121 203 136 203 q 161 222 121 216 l 161 229 l 154 229 q 115 216 127 216 l 115 229 l 134 229 l 134 241 l 128 241 l 102 229 q 64 241 81 241 q 57 235 64 235 q 38 280 51 260 q 212 454 57 334 l 218 454 q 193 422 193 426 l 199 422 q 361 590 361 567 q 393 693 393 625 l 393 719 l 387 719 q 309 667 326 667 l 309 674 l 225 623 l 199 629 l 167 610 l 161 623 l 167 623 q 161 642 161 635 l 154 642 l 109 610 l 102 623 q 193 706 193 701 l 186 706 q 77 616 96 616 l 70 629 q 464 964 360 934 m 257 493 l 264 493 q 238 467 264 483 l 238 474 q 257 493 238 483 m 109 67 l 109 61 l 167 61 l 167 67 l 109 67 z "},"4":{"ha":688,"x_min":-6,"x_max":770,"o":"m 568 970 l 568 965 l 540 919 q 557 896 548 896 l 568 896 q 586 942 580 896 l 591 942 q 597 924 597 930 l 591 884 q 597 878 591 878 l 591 850 l 591 821 l 597 821 l 597 856 l 608 856 q 488 333 608 729 l 580 333 l 614 338 q 643 327 643 333 l 654 333 q 770 310 662 333 l 770 298 l 752 298 q 729 304 739 298 l 718 298 q 712 304 712 298 q 694 298 706 304 q 580 310 679 298 l 568 310 l 568 304 q 614 287 614 304 l 608 275 l 654 275 l 654 264 l 694 264 l 694 252 q 517 212 547 241 l 482 206 l 482 212 q 436 126 436 206 q 408 40 422 109 q 361 -110 395 40 q 345 -127 349 -127 l 338 -127 q 373 57 352 -11 l 361 63 q 373 126 361 71 l 373 132 l 368 132 q 315 -35 335 -14 l 310 -35 l 310 22 q 298 34 310 34 l 310 85 q 304 138 304 117 l 304 143 l 310 201 q 264 212 281 212 q 218 201 218 208 l 189 206 l 149 206 q 120 189 120 206 l 63 189 q 40 212 54 189 l 45 224 q -1 304 -1 240 q -6 327 -6 314 q 298 677 62 422 q 448 861 343 743 l 448 873 l 459 873 l 459 861 l 465 861 q 471 907 465 866 l 482 907 l 482 896 q 568 970 549 970 m 241 350 q 287 368 273 358 l 327 345 l 345 345 q 373 459 345 359 l 368 482 l 379 551 q 275 413 294 475 q 241 350 241 363 m 155 252 l 155 247 l 172 247 q 189 252 183 252 l 189 258 l 184 258 q 155 252 174 252 z "},"5":{"ha":551,"x_min":0,"x_max":541,"o":"m 304 970 l 304 964 l 298 951 l 304 951 q 323 958 323 951 q 448 914 448 949 q 516 777 475 914 l 516 771 l 504 771 q 510 678 510 758 l 492 678 l 492 672 q 473 559 492 647 l 460 559 l 460 591 l 454 591 l 454 547 l 441 547 q 379 802 422 802 q 330 821 376 821 l 323 821 q 193 747 265 821 l 224 672 q 298 566 252 672 q 342 522 336 522 l 349 522 q 280 628 280 602 l 286 628 l 404 504 l 398 492 q 529 336 472 439 q 516 323 516 334 q 541 224 541 278 l 541 193 q 218 0 422 0 l 155 0 l 131 19 q 106 12 117 19 l 50 56 q 0 131 0 79 q 180 330 0 241 q 212 298 191 298 l 212 286 l 205 274 q 218 261 218 272 l 199 237 q 212 224 212 235 q 149 137 191 219 l 161 143 l 193 137 l 230 143 l 230 137 q 355 186 330 186 q 379 230 379 203 l 379 237 l 342 292 l 342 298 l 355 298 q 367 280 355 280 l 367 286 q 218 448 366 298 l 230 454 q 243 441 232 441 l 243 448 q 56 641 56 604 q 37 678 48 641 q 43 684 37 684 l 37 728 q 137 896 37 790 q 155 902 149 902 l 149 914 l 149 920 q 249 958 174 920 l 267 958 l 267 945 l 280 945 q 304 970 281 970 z "},"6":{"ha":627,"x_min":0,"x_max":660,"o":"m 406 964 l 431 958 l 476 964 q 596 863 499 964 q 615 888 615 863 q 628 876 628 886 l 609 844 l 622 844 q 635 863 622 863 l 660 863 q 596 825 644 825 q 590 819 596 819 q 584 825 590 825 q 565 800 574 800 q 558 806 558 800 q 520 793 538 793 l 476 806 l 412 806 q 254 666 353 806 q 241 628 241 646 q 323 552 309 552 l 323 558 q 254 635 254 618 q 267 647 256 647 q 387 539 267 639 q 501 431 387 530 l 533 387 l 533 380 l 520 380 q 571 222 571 302 q 596 203 596 212 q 463 83 471 83 q 197 0 343 0 q 0 355 0 127 q 44 558 17 558 q 102 743 66 706 q 254 920 102 780 l 267 920 l 267 913 l 229 863 l 235 863 q 412 939 321 939 l 399 958 q 406 964 406 958 m 596 907 l 615 907 l 615 888 l 609 888 q 596 901 596 888 l 596 907 m 153 895 l 159 895 q 172 882 172 892 l 172 876 q 140 857 172 865 l 133 869 l 133 876 q 153 895 133 884 m 191 495 q 178 463 191 484 q 184 342 184 394 l 184 323 l 191 292 q 172 254 180 292 q 203 203 193 203 l 203 210 q 184 254 184 233 l 203 254 q 229 197 203 233 q 216 184 229 184 l 216 197 l 203 197 q 229 165 229 168 l 241 172 q 279 159 252 172 q 374 210 331 199 q 399 241 374 213 l 399 260 q 355 317 373 290 l 355 323 l 387 298 q 210 457 380 323 l 222 463 q 241 444 222 454 l 241 450 q 191 495 241 458 m 539 279 l 539 273 q 546 248 546 262 l 552 248 l 552 260 q 546 279 546 273 l 539 279 z "},"7":{"ha":688,"x_min":-147,"x_max":802,"o":"m 669 981 l 726 981 q 770 956 760 981 q 764 949 770 949 l 777 924 q 770 918 770 924 q 789 905 789 918 q 777 892 777 903 l 789 892 l 789 880 l 777 880 l 777 873 q 802 861 802 873 q 745 842 745 853 q 783 817 768 842 q 720 798 751 798 l 682 798 q 431 484 582 654 q 230 252 267 324 q 98 119 119 119 q -22 -6 14 -6 l -22 0 q 92 157 20 81 l 85 170 l 123 227 l 123 233 q -9 88 -3 88 l -15 101 l 16 157 q 10 176 10 170 q 92 327 20 176 l 286 572 q 387 735 286 591 q 444 798 412 735 q 406 810 420 798 q 98 823 204 823 q 54 817 79 823 q -147 848 26 817 l -147 861 l -122 861 q -97 854 -108 861 q -78 861 -85 861 q -72 854 -72 861 q -53 861 -65 854 q 98 848 -35 861 l 111 848 l 111 854 q 47 873 47 854 l 54 886 l 3 886 l 3 899 l -53 899 l -53 911 q 167 956 134 924 q 318 968 276 968 l 393 962 l 425 968 q 494 956 478 956 q 544 968 544 960 l 588 962 l 638 962 q 669 981 669 962 z "},"8":{"ha":688,"x_min":0,"x_max":686,"o":"m 438 970 l 456 953 l 467 959 l 491 959 q 604 882 571 914 l 657 817 l 657 810 l 645 810 q 686 704 686 745 l 686 675 q 527 503 606 528 q 639 385 639 397 l 639 378 l 627 378 q 669 272 669 313 l 669 243 q 486 59 586 88 l 313 12 l 302 12 q 284 30 302 20 l 278 30 l 290 12 q 278 0 290 0 q 165 100 278 8 q 59 201 165 109 l 30 243 q 35 267 35 253 q 0 355 16 267 l 0 385 q 160 556 80 531 l 119 610 q 124 633 124 620 q 89 722 104 633 l 89 751 q 438 970 198 970 m 243 745 l 243 728 q 284 675 267 700 l 284 669 l 254 692 q 343 610 275 652 q 367 615 353 615 q 385 597 367 607 l 391 597 l 378 615 q 391 627 380 627 q 420 604 403 604 q 509 651 468 642 l 532 680 l 532 699 q 491 751 508 726 l 491 758 q 521 734 517 734 q 408 834 503 772 q 302 787 362 834 q 243 745 273 787 m 100 740 l 100 728 q 106 710 106 716 l 113 710 l 113 716 q 106 740 106 726 l 100 740 m 663 716 l 663 710 q 669 686 669 700 l 675 686 l 675 699 q 669 716 669 710 l 663 716 m 154 378 l 154 361 q 195 308 179 333 l 195 302 l 165 326 q 332 178 172 302 l 319 172 q 313 178 319 178 l 313 165 q 337 154 337 164 q 456 207 401 164 q 515 248 484 207 l 515 267 q 473 319 490 294 l 473 326 l 503 302 q 402 378 484 349 q 373 397 392 378 l 367 397 l 378 378 q 367 367 378 367 q 267 456 357 385 q 178 408 218 418 l 154 378 m 313 456 l 313 450 l 337 432 l 343 432 q 313 456 340 444 m 12 373 l 12 361 q 18 343 18 349 l 24 343 l 24 349 q 18 373 18 359 l 12 373 m 645 284 l 645 278 q 651 254 651 268 l 657 254 l 657 267 q 651 284 651 278 l 645 284 z "},"9":{"ha":627,"x_min":-64,"x_max":595,"o":"m 189 -3 l 164 3 l 119 -3 q -1 99 96 -3 q -20 73 -20 99 q -33 86 -33 75 l -14 118 l -26 118 q -39 99 -26 99 l -64 99 q -1 137 -49 137 q 5 143 -1 143 q 12 137 5 137 q 31 162 21 162 q 37 156 37 162 q 75 169 58 169 l 119 156 l 183 156 q 342 296 243 156 q 354 334 354 316 q 272 410 287 410 l 272 404 q 342 327 341 343 q 329 315 340 315 q 208 422 329 323 q 94 530 208 432 l 62 574 l 62 581 l 75 581 q 24 740 24 660 q -1 759 -1 749 q 132 879 124 879 q 399 962 252 962 q 595 606 595 835 q 551 404 578 404 q 494 219 530 256 q 342 41 494 182 l 329 41 l 329 48 l 367 99 l 361 99 q 183 22 273 22 l 196 3 q 189 -3 189 3 m -1 54 l -20 54 l -20 73 l -14 73 q -1 61 -1 73 l -1 54 m 443 67 l 437 67 q 424 80 424 69 l 424 86 q 456 105 424 97 l 462 92 l 462 86 q 443 67 462 77 m 405 467 q 418 498 405 478 q 412 619 412 568 l 412 638 l 405 670 q 424 708 416 670 q 393 759 402 759 l 393 752 q 412 708 412 729 l 393 708 q 367 765 393 728 q 380 778 367 778 l 380 765 l 393 765 q 367 797 367 793 l 354 790 q 316 803 343 790 q 221 752 264 762 q 196 721 221 749 l 196 701 q 240 644 222 671 l 240 638 l 208 663 q 386 505 216 638 l 374 498 q 354 517 374 508 l 354 511 q 405 467 354 503 m 56 682 l 56 689 q 50 714 50 700 l 43 714 l 43 701 q 50 682 50 689 l 56 682 z "},"\u0000":{"ha":0,"x_min":0,"x_max":0,"o":""}," ":{"ha":345,"x_min":0,"x_max":0,"o":""},"!":{"ha":237,"x_min":3,"x_max":279,"o":"m 149 185 q 166 157 166 167 l 183 168 q 195 123 195 139 q 155 39 195 109 l 161 27 q 132 -24 161 18 q 121 -46 132 -46 l 115 -46 q 93 10 107 -46 q 64 -29 71 -29 q 8 33 8 10 q 20 83 20 75 q 3 117 8 83 l 14 123 q 3 157 3 142 l 42 174 q 54 163 44 163 q 76 180 54 177 q 138 174 126 174 q 149 185 140 185 m 236 1027 q 243 1015 243 1020 l 243 985 q 249 982 243 981 l 246 960 l 250 939 l 255 939 l 252 965 l 262 966 q 189 514 279 859 q 162 354 181 418 q 145 282 141 307 q 117 205 129 206 l 111 203 q 124 344 111 291 l 112 347 q 116 395 111 352 l 115 399 l 110 398 q 78 268 95 286 l 73 267 l 66 309 q 54 316 65 317 l 59 355 q 47 393 50 378 q 78 640 39 450 l 70 656 q 79 787 75 783 q 87 913 94 789 l 93 914 l 105 912 l 104 955 l 115 957 l 117 948 l 122 949 q 122 984 123 980 l 134 985 l 138 960 l 149 962 q 160 998 144 993 l 177 1001 q 208 988 205 988 l 219 990 q 231 1026 230 991 l 236 1027 z "},"\"":{"ha":507,"x_min":40,"x_max":465,"o":"m 106 983 l 117 977 l 117 957 l 120 952 l 134 982 l 208 964 q 211 981 203 975 l 222 974 q 231 932 222 944 l 237 943 q 245 941 240 939 q 191 719 262 878 q 172 637 197 710 l 168 633 l 155 631 q 140 573 165 590 l 129 579 q 130 648 125 585 q 123 678 121 661 l 118 675 q 99 614 110 640 l 94 610 l 87 620 q 79 642 81 630 l 68 648 q 64 783 40 718 l 79 813 l 67 819 q 77 895 58 863 q 75 948 67 943 l 87 950 q 106 983 82 958 m 309 987 l 319 981 l 320 960 l 323 956 l 336 985 l 411 968 q 414 984 406 978 l 425 977 q 433 935 425 947 l 439 946 q 448 945 443 942 q 394 722 465 881 q 375 640 400 713 l 370 637 l 358 635 q 343 576 368 593 l 332 583 q 332 652 328 589 q 326 682 324 664 l 321 679 q 302 617 313 644 l 297 614 l 290 623 q 282 645 283 633 l 271 651 q 267 786 243 722 l 281 817 l 270 823 q 280 898 260 866 q 277 951 270 947 l 290 954 q 309 987 285 962 z "},"#":{"ha":704,"x_min":-56,"x_max":713,"o":"m 87 431 q 114 532 98 477 l 109 551 q 90 564 93 557 q 50 535 60 535 q -29 581 -29 564 q -14 618 -14 612 q -37 643 -29 618 l -22 647 q -37 672 -37 661 l 18 684 q 34 676 21 676 q 66 689 34 686 l 129 689 q 136 724 134 722 q 165 888 152 724 l 170 888 l 182 882 l 187 939 l 199 939 l 199 928 l 204 928 q 210 973 210 968 l 221 973 l 221 939 l 233 939 q 250 985 233 981 l 267 985 q 295 962 292 962 l 306 962 q 323 1007 317 962 l 329 1007 q 334 990 334 996 l 329 951 q 334 945 329 945 l 329 916 l 329 888 l 334 888 l 334 922 l 346 922 q 307 690 346 846 l 374 690 q 382 728 380 725 q 410 892 397 728 l 416 892 l 427 886 l 433 943 l 444 943 l 444 931 l 450 931 q 455 977 455 972 l 467 977 l 467 943 l 478 943 q 495 988 478 984 l 512 988 q 541 965 537 965 l 551 965 q 568 1010 563 965 l 574 1010 q 580 994 580 1000 l 574 954 q 580 948 574 948 l 574 920 l 574 892 l 580 892 l 580 926 l 591 926 q 551 691 591 849 q 633 692 627 692 q 649 700 635 700 q 673 679 673 686 l 696 688 q 713 654 713 666 q 657 591 713 644 l 665 583 q 625 546 665 577 q 609 529 625 529 l 602 529 q 506 528 551 528 q 477 433 493 483 q 615 434 607 434 q 631 442 617 442 q 654 421 654 429 l 678 430 q 694 397 694 408 q 639 334 694 386 l 646 326 q 607 288 646 319 q 591 271 607 271 l 583 271 q 434 271 503 270 q 399 144 418 197 q 370 54 370 87 q 331 -43 343 -43 l 325 -43 q 359 138 338 71 l 348 144 q 359 206 348 152 l 359 212 l 353 212 q 302 48 321 68 l 297 48 l 297 104 q 286 116 297 116 l 297 167 q 291 218 291 197 q 296 273 291 239 q 191 278 235 274 q 153 141 174 197 q 125 50 125 83 q 85 -46 98 -46 l 79 -46 q 114 135 93 68 l 102 141 q 114 203 102 149 l 114 209 l 108 209 q 57 45 76 65 l 52 45 l 52 101 q 40 113 52 113 l 52 163 q 45 214 45 194 q 54 291 45 242 q 32 277 39 277 q -47 323 -47 306 q -32 360 -32 354 q -56 385 -47 360 l -40 389 q -56 414 -56 403 l 0 427 q 16 418 3 418 q 47 431 16 429 l 87 431 m 263 532 q 233 432 249 485 q 332 433 285 433 q 358 529 343 477 q 263 532 305 530 z "},"$":{"ha":545,"x_min":0,"x_max":545,"o":"m 362 977 l 388 977 l 413 958 q 438 964 427 958 q 513 914 498 914 q 545 845 543 878 q 363 645 545 734 q 332 676 353 676 l 332 680 q 311 540 323 614 q 326 526 318 533 l 313 519 q 310 530 313 526 q 309 519 309 524 q 488 332 488 368 q 507 294 496 332 q 500 288 507 288 l 507 244 q 407 75 507 182 q 388 69 395 69 l 395 56 l 395 50 q 294 12 369 50 l 275 12 l 275 25 l 263 25 q 238 0 263 0 l 238 6 l 244 19 l 235 19 q 220 -83 220 -45 q 194 -205 202 -205 l 191 -205 q 211 13 198 -70 q 196 14 203 14 q 176 -90 184 -73 l 172 -90 l 172 -19 q 165 -5 172 -5 l 168 18 q 94 56 94 29 q 25 194 66 56 l 25 200 l 37 200 q 25 238 37 211 q 31 244 25 244 l 25 275 l 25 294 l 50 294 l 50 300 q 69 413 50 325 l 81 413 l 81 382 l 87 382 l 87 426 l 100 426 q 163 169 120 169 q 170 159 164 163 q 196 408 174 242 l 138 469 l 144 482 q 12 639 70 534 q 25 651 25 639 q 0 751 0 697 l 0 783 q 245 968 95 937 l 245 974 l 249 974 l 253 970 q 256 970 254 970 l 260 1038 l 267 1038 l 267 1024 l 271 1024 q 275 1081 275 1075 l 282 1081 l 282 1038 l 290 1038 q 300 1095 290 1090 l 311 1095 q 330 1067 328 1067 l 337 1067 q 348 1124 345 1067 l 352 1124 q 355 1102 355 1110 l 352 1053 q 355 1045 352 1045 l 352 1009 l 352 977 l 355 977 l 355 1017 l 363 1017 q 362 977 363 998 m 257 158 q 351 225 300 174 l 319 300 q 279 337 302 300 q 271 288 275 313 q 257 158 264 217 m 235 803 q 188 789 201 789 q 163 745 163 772 l 163 739 l 200 682 l 200 676 l 188 676 q 175 695 188 695 l 175 688 q 216 640 176 683 q 227 766 225 762 q 235 803 231 766 m 201 450 l 200 451 l 194 451 q 201 443 197 447 q 201 450 201 446 m 333 692 l 338 701 l 334 701 q 333 692 334 696 m 338 730 l 345 739 q 339 739 342 739 q 338 730 339 734 m 342 758 q 395 839 361 774 l 382 833 l 351 839 q 342 758 347 801 z "},"%":{"ha":664,"x_min":0,"x_max":781,"o":"m 644 1004 l 650 991 q 617 945 642 991 l 617 939 l 676 998 l 742 939 q 774 985 759 981 l 781 972 l 781 965 q 709 847 766 949 l 722 847 q 748 886 724 871 l 755 886 l 755 880 q 341 374 701 756 q 164 157 245 245 l 112 118 q 0 0 39 1 l 0 7 q 118 171 43 92 l 112 184 l 151 243 l 151 250 q 13 98 20 98 l 7 112 l 39 171 q 33 191 33 183 q 112 341 57 211 l 321 604 q 427 774 321 623 q 519 899 459 774 q 545 932 538 932 l 551 932 l 551 919 l 558 919 q 604 985 558 937 q 617 972 606 972 q 644 1004 617 991 m 597 207 q 614 178 614 189 l 631 190 q 642 145 642 161 q 603 60 642 131 l 608 49 q 580 -2 608 40 q 569 -24 580 -24 l 563 -24 q 541 32 555 -24 q 512 -7 519 -7 q 456 54 456 32 q 467 105 467 97 q 450 139 456 105 l 462 145 q 450 178 450 163 l 490 195 q 501 184 492 184 q 524 201 501 199 q 586 195 574 195 q 597 207 587 207 m 223 970 q 240 942 240 952 l 257 954 q 269 909 269 924 q 229 824 269 895 l 235 812 q 206 762 235 804 q 195 739 206 739 l 189 739 q 167 795 181 739 q 138 756 145 756 q 82 818 82 795 q 94 869 94 861 q 77 903 82 869 l 88 909 q 77 942 77 927 l 116 959 q 127 948 118 948 q 150 965 127 962 q 212 959 200 959 q 223 970 214 970 z "},"&":{"ha":734,"x_min":0,"x_max":1068,"o":"m 420 918 l 420 911 l 479 911 l 479 918 l 420 918 m 528 115 l 528 88 l 534 88 l 534 115 l 528 115 m 420 128 l 420 102 l 427 102 l 427 128 l 420 128 m 494 175 l 494 149 l 500 149 l 500 175 l 494 175 m 500 222 l 500 182 l 507 182 l 507 222 l 500 222 m 347 505 l 347 498 q 328 479 347 489 l 321 479 q 347 505 321 489 m 469 597 q 374 517 430 562 l 367 517 l 393 551 l 387 551 q 223 380 223 404 q 190 275 190 345 l 190 249 l 197 249 q 275 302 258 302 l 275 295 l 361 347 l 387 341 l 420 361 l 426 347 l 420 347 q 426 328 426 334 l 428 328 q 481 597 459 497 l 469 597 m 421 291 q 393 262 394 266 l 400 262 q 419 281 410 273 q 421 291 420 286 m 262 618 q 59 590 190 590 q 26 649 26 641 q 66 780 33 743 q 92 826 66 826 l 92 839 q 52 905 52 884 l 52 924 q 288 977 52 962 q 341 970 304 977 q 426 977 384 977 q 616 924 616 956 l 610 911 l 623 911 l 623 905 l 570 905 q 498 911 543 905 l 492 911 l 492 905 q 564 891 517 905 l 564 885 l 557 871 q 564 865 564 871 l 517 839 l 426 839 l 426 832 l 452 832 l 452 819 l 282 819 l 249 812 l 249 819 q 210 780 210 819 l 210 773 l 216 773 q 439 780 302 773 q 465 773 450 773 q 460 765 465 768 q 521 764 498 764 l 528 777 l 541 770 l 568 770 l 588 784 l 648 758 q 808 747 694 747 q 854 753 828 747 q 1068 720 884 753 l 1068 707 l 1042 707 q 1015 713 1027 707 q 995 707 1002 707 q 988 713 988 707 q 968 707 981 713 q 808 720 949 707 l 794 720 l 794 713 q 861 693 861 713 l 854 680 l 908 680 l 908 667 l 968 667 l 968 653 q 734 606 769 640 q 654 597 659 597 q 601 222 635 404 l 588 222 l 594 235 q 588 316 588 283 l 581 316 q 528 -12 581 155 l 514 -12 q 521 41 514 16 l 521 55 l 514 55 q 488 -25 503 -25 l 481 -25 l 488 1 l 488 15 l 481 15 q 447 -119 481 -21 q 434 -146 447 -146 q 427 -139 434 -139 q 414 -193 427 -150 l 394 -193 q 380 -172 380 -193 q 414 35 414 -2 l 414 62 l 407 62 q 380 -99 407 22 l 367 -99 l 367 -92 q 374 -25 367 -84 l 367 -12 q 410 232 390 121 q 118 0 203 26 q 26 39 31 28 q 0 125 7 125 q 66 446 1 241 q 85 479 85 446 l 98 479 l 92 446 l 92 426 l 98 426 q 190 557 98 501 q 236 596 190 563 l 249 596 l 216 557 l 223 557 q 261 601 243 583 q 260 604 260 602 q 267 610 260 610 l 262 618 z "},"'":{"ha":290,"x_min":40,"x_max":262,"o":"m 106 983 l 117 977 l 117 957 l 120 952 l 134 982 l 208 964 q 211 981 203 975 l 222 974 q 231 932 222 944 l 237 943 q 245 941 240 939 q 191 719 262 878 q 172 637 197 710 l 168 633 l 155 631 q 140 573 165 590 l 129 579 q 130 648 125 585 q 123 678 121 661 l 118 675 q 99 614 110 640 l 94 610 l 87 620 q 79 642 81 630 l 68 648 q 64 783 40 718 l 79 813 l 67 819 q 77 895 58 863 q 75 948 67 943 l 87 950 q 106 983 82 958 z "},"(":{"ha":532,"x_min":0,"x_max":559,"o":"m 412 970 l 437 964 l 482 970 q 559 906 508 970 q 463 848 539 848 q 218 610 318 779 l 225 597 q 212 585 225 585 q 205 591 212 591 l 212 559 q 180 463 201 540 q 186 340 186 393 l 186 321 l 193 289 q 174 251 182 289 q 231 161 197 195 l 244 167 q 392 129 315 141 q 412 39 412 91 q 257 0 365 18 q 0 353 42 0 q 45 559 17 559 q 103 745 66 709 q 257 926 103 783 l 270 926 l 270 919 l 231 867 l 238 867 q 418 945 326 945 l 405 964 q 412 970 412 964 m 154 900 l 161 900 q 174 887 174 898 l 174 880 q 141 861 174 869 l 135 874 l 135 880 q 154 900 135 890 m 186 251 l 205 251 q 231 193 205 230 q 218 180 231 180 q 186 251 186 235 z "},")":{"ha":532,"x_min":-52,"x_max":507,"o":"m 96 0 l 70 6 l 25 0 q -52 64 -1 0 q 44 122 -33 122 q 288 360 189 191 l 282 373 q 295 386 282 386 q 301 379 295 379 l 295 412 q 327 508 306 431 q 321 630 321 578 l 321 649 l 314 682 q 334 720 325 682 q 275 810 310 775 l 262 804 q 115 842 191 829 q 96 932 96 880 q 250 970 142 953 q 507 617 465 970 q 462 412 490 412 q 404 225 440 262 q 250 45 404 187 l 237 45 l 237 52 l 275 103 l 269 103 q 89 26 181 26 l 102 6 q 96 0 96 6 m 353 71 l 347 71 q 334 83 334 73 l 334 90 q 366 109 334 101 l 372 96 l 372 90 q 353 71 372 81 m 321 720 l 301 720 q 275 778 301 741 q 288 791 275 791 q 321 720 321 736 z "},"*":{"ha":581,"x_min":82,"x_max":614,"o":"m 492 799 q 558 800 553 800 q 569 808 559 808 q 586 787 586 794 l 603 795 q 614 762 614 774 q 575 699 614 751 l 581 691 q 552 654 581 685 q 541 637 552 637 l 535 637 q 484 636 509 636 q 482 603 490 611 q 522 593 518 599 q 510 522 525 530 q 472 513 477 516 q 459 486 478 503 l 450 493 q 434 471 444 477 l 404 499 q 405 513 410 505 q 382 526 396 508 q 351 579 366 555 q 304 545 319 541 q 315 505 318 511 q 247 479 261 471 q 220 508 226 505 q 190 506 214 498 l 192 517 q 165 520 175 515 l 174 561 q 186 566 182 558 q 187 592 178 572 q 220 649 204 621 q 172 671 177 658 q 144 643 151 643 q 87 688 87 671 q 99 726 99 720 q 82 751 87 726 l 94 755 q 82 780 82 768 l 121 792 q 133 784 123 784 q 155 797 133 794 q 224 798 191 797 q 179 873 182 869 q 166 879 171 871 q 176 904 170 901 l 160 914 q 183 941 173 935 q 257 938 192 946 l 262 947 q 308 941 267 950 q 328 940 322 949 l 331 935 q 357 891 345 912 q 386 942 384 939 q 385 956 380 948 q 411 960 405 964 l 412 979 q 446 972 436 979 q 481 907 456 967 l 491 907 q 509 865 496 905 q 518 846 524 857 l 515 842 q 492 799 503 819 z "},"+":{"ha":581,"x_min":49,"x_max":581,"o":"m 409 575 q 525 576 519 576 q 536 584 526 584 q 553 563 553 570 l 570 572 q 581 538 581 550 q 542 475 581 528 l 547 467 q 519 430 547 461 q 508 413 519 413 l 502 413 q 386 412 438 412 q 346 318 368 323 q 372 287 372 293 q 319 235 336 234 q 283 251 290 250 q 257 237 283 239 l 254 248 q 228 240 239 239 l 220 281 q 230 291 229 281 q 220 315 219 292 q 231 419 225 370 q 139 448 146 428 q 111 419 117 419 q 54 465 54 448 q 66 502 66 496 q 49 527 54 502 l 60 531 q 49 556 49 545 l 88 568 q 100 560 90 560 q 122 573 100 570 q 248 574 191 574 q 261 715 260 708 q 254 727 253 718 q 277 742 269 743 l 270 760 q 304 767 292 768 q 362 721 315 766 l 371 726 q 405 694 377 725 q 420 680 422 692 l 420 675 q 409 575 415 621 z "},",":{"ha":290,"x_min":-45,"x_max":267,"o":"m 176 244 l 182 233 l 170 216 l 170 210 l 199 227 l 250 170 q 261 182 252 182 l 267 170 q 250 131 250 145 l 261 136 q 267 131 261 131 q 96 -22 245 68 q 34 -79 96 -33 l 28 -79 l 17 -73 q -28 -113 1 -113 l -34 -102 q 5 -45 -34 -95 q 17 -17 5 -31 l 12 -17 q -40 -56 -16 -41 l -45 -56 l -45 -45 q -40 -22 -45 -33 l -45 -11 q 28 102 -28 63 l 57 119 l 51 131 q 102 187 68 172 q 130 233 121 233 l 142 227 q 176 244 142 237 z "},"-":{"ha":581,"x_min":49,"x_max":581,"o":"m 536 584 q 553 563 553 570 l 570 572 q 581 538 581 550 q 542 475 581 528 l 547 467 q 519 430 547 461 q 508 413 519 413 l 502 413 q 139 448 153 406 q 111 419 117 419 q 54 465 54 448 q 66 502 66 496 q 49 527 54 502 l 60 531 q 49 556 49 545 l 88 568 q 100 560 90 560 q 122 573 100 570 q 525 576 513 576 q 536 584 526 584 z "},".":{"ha":247,"x_min":24,"x_max":216,"o":"m 171 231 q 188 203 188 213 l 205 214 q 216 170 216 185 q 177 85 216 155 l 182 73 q 154 22 182 64 q 143 0 154 0 l 137 0 q 115 56 129 0 q 86 17 93 17 q 30 79 30 56 q 41 130 41 121 q 24 163 30 130 l 36 170 q 24 203 24 188 l 64 220 q 75 209 66 209 q 98 226 75 223 q 160 220 148 220 q 171 231 161 231 z "},"/":{"ha":664,"x_min":0,"x_max":781,"o":"m 644 1004 l 650 991 q 617 945 642 991 l 617 939 l 676 998 l 742 939 q 774 985 759 981 l 781 972 l 781 965 q 709 847 766 949 l 722 847 q 748 886 724 871 l 755 886 l 755 880 q 341 374 701 756 q 164 157 245 245 l 112 118 q 0 0 39 1 l 0 7 q 118 171 43 92 l 112 184 l 151 243 l 151 250 q 13 98 20 98 l 7 112 l 39 171 q 33 191 33 183 q 112 341 57 211 l 321 604 q 427 774 321 623 q 519 899 459 774 q 545 932 538 932 l 551 932 l 551 919 l 558 919 q 604 985 558 937 q 617 972 606 972 q 644 1004 617 991 z "},":":{"ha":247,"x_min":0,"x_max":229,"o":"m 146 370 q 163 342 163 352 l 180 353 q 192 309 192 324 q 153 224 192 294 l 158 212 q 130 161 158 203 q 119 139 130 139 l 113 139 q 90 195 104 139 q 62 156 68 156 q 5 218 5 195 q 17 269 17 260 q 0 302 5 269 l 12 309 q 0 342 0 327 l 39 359 q 51 348 41 348 q 73 365 51 362 q 136 359 123 359 q 146 370 137 370 m 184 744 q 201 715 201 726 l 218 727 q 229 682 229 698 q 190 597 229 668 l 195 586 q 167 535 195 577 q 156 513 167 513 l 150 513 q 127 569 142 513 q 99 530 106 530 q 43 591 43 569 q 54 642 54 634 q 37 676 43 642 l 49 682 q 37 715 37 701 l 77 732 q 88 722 79 722 q 111 739 88 736 q 173 732 161 732 q 184 744 174 744 z "},";":{"ha":247,"x_min":-106,"x_max":229,"o":"m 184 744 q 201 715 201 726 l 218 727 q 229 682 229 698 q 190 597 229 668 l 195 586 q 167 535 195 577 q 156 513 167 513 l 150 513 q 127 569 142 513 q 99 530 106 530 q 43 591 43 569 q 54 642 54 634 q 37 676 43 642 l 49 682 q 37 715 37 701 l 77 732 q 88 722 79 722 q 111 739 88 736 q 173 732 161 732 q 184 744 174 744 m 115 361 l 121 349 l 109 332 l 109 327 l 138 344 l 189 287 q 200 298 191 298 l 205 287 q 189 248 189 262 l 200 253 q 205 248 200 248 q 35 94 184 184 q -27 37 35 83 l -33 37 l -44 43 q -90 3 -60 3 l -95 15 q -56 71 -95 22 q -44 100 -56 85 l -50 100 q -101 60 -77 76 l -106 60 l -106 71 q -101 94 -106 84 l -106 106 q -33 219 -90 180 l -4 236 l -10 248 q 41 304 7 288 q 69 349 60 349 l 81 344 q 115 361 81 353 z "},"<":{"ha":581,"x_min":43,"x_max":556,"o":"m 193 479 q 518 307 508 313 q 532 309 524 313 q 537 283 541 289 l 556 282 q 550 248 555 258 q 486 211 545 238 l 487 201 q 444 182 484 195 q 427 172 436 167 l 421 175 q 118 377 111 334 q 79 365 85 361 q 52 432 43 417 q 79 459 76 454 q 76 490 69 465 l 87 488 q 87 507 85 499 q 77 517 82 511 l 85 526 q 64 543 68 533 l 93 572 q 107 570 98 566 q 121 591 102 579 q 479 775 469 770 q 486 787 477 783 q 510 777 507 783 l 522 791 q 547 767 541 778 q 540 694 551 758 l 549 688 q 540 642 551 683 q 538 623 547 627 l 532 620 q 193 488 224 456 q 193 479 192 484 z "},"=":{"ha":581,"x_min":31,"x_max":593,"o":"m 517 424 q 534 403 534 410 l 551 412 q 563 378 563 390 q 524 315 563 368 l 529 307 q 500 270 529 301 q 490 253 500 253 l 484 253 q 121 288 135 246 q 92 259 99 259 q 36 304 36 288 q 47 342 47 336 q 31 367 36 342 l 42 371 q 31 396 31 385 l 70 408 q 81 400 72 400 q 104 413 81 410 q 507 416 494 416 q 517 424 508 424 m 548 697 q 565 676 565 684 l 582 685 q 593 652 593 663 q 554 589 593 641 l 559 581 q 531 543 559 574 q 520 526 531 526 l 514 526 q 151 561 165 519 q 123 532 130 532 q 66 578 66 561 q 78 615 78 609 q 61 640 66 615 l 73 644 q 61 669 61 658 l 100 682 q 112 673 102 673 q 134 686 112 684 q 537 689 525 689 q 548 697 538 697 z "},">":{"ha":581,"x_min":50,"x_max":563,"o":"m 414 484 q 88 655 98 650 q 75 653 83 649 q 69 680 66 673 l 50 680 q 56 715 51 705 q 121 751 61 724 l 119 761 q 162 781 123 767 q 180 790 170 795 l 185 787 q 488 585 496 629 q 527 597 521 601 q 555 530 563 545 q 528 503 530 509 q 530 473 537 498 l 519 475 q 519 455 521 463 q 530 445 524 452 l 522 436 q 543 419 538 429 l 513 390 q 499 393 508 397 q 485 371 504 383 q 127 187 138 193 q 121 175 129 179 q 96 186 99 180 l 85 171 q 60 195 65 184 q 66 269 55 205 l 58 274 q 66 320 55 279 q 68 340 59 335 l 74 342 q 414 475 382 506 q 414 484 414 479 z "},"?":{"ha":547,"x_min":0,"x_max":543,"o":"m 169 974 q 518 793 414 974 q 543 736 532 777 q 506 625 530 669 q 518 612 518 623 q 262 337 477 551 q 256 343 262 343 q 325 431 301 431 l 325 444 q 218 306 262 388 q 175 243 193 306 q 84 243 162 243 q 6 307 6 243 q 131 444 6 370 q 243 543 199 489 l 237 543 q 212 518 237 533 l 206 530 q 368 687 368 672 l 368 693 l 337 662 l 337 674 l 381 736 q 275 805 381 769 q 187 836 275 825 q 162 830 176 830 l 150 836 l 150 830 l 206 743 q 200 724 200 731 q 212 711 212 722 q 200 699 212 699 l 206 687 l 206 674 l 162 649 q 0 849 0 739 q 68 930 0 898 q 113 962 73 945 l 144 955 q 169 974 144 970 m 149 185 q 166 157 166 167 l 183 168 q 195 123 195 139 q 155 39 195 109 l 161 27 q 132 -24 161 18 q 121 -46 132 -46 l 115 -46 q 93 10 107 -46 q 64 -29 71 -29 q 8 33 8 10 q 20 83 20 75 q 3 117 8 83 l 14 123 q 3 157 3 142 l 42 174 q 54 163 44 163 q 76 180 54 177 q 138 174 126 174 q 149 185 140 185 z "},"@":{"ha":731,"x_min":-9,"x_max":739,"o":"m 522 949 q 608 877 547 949 q 627 903 627 877 q 640 890 640 901 l 621 857 l 633 857 q 647 877 633 877 l 673 877 l 660 857 l 660 851 q 732 687 701 851 q 739 608 732 629 l 726 562 q 667 313 711 458 q 542 136 622 196 q 338 -1 475 57 l 253 -8 q -9 353 33 -8 q -3 405 -3 378 l -3 437 l 17 536 q 70 720 37 550 q 135 825 81 720 q 253 937 143 825 l 267 937 l 267 930 l 227 877 l 233 877 q 417 956 323 956 l 404 976 l 417 982 l 456 976 l 456 982 l 522 949 m 608 923 l 627 923 l 627 903 l 621 903 q 608 917 608 903 l 608 923 m 149 910 l 155 910 q 168 897 168 908 l 168 890 q 135 871 168 879 l 129 884 l 129 890 q 149 910 129 900 m 614 844 l 614 838 q 640 798 631 798 l 640 831 q 627 844 640 844 l 614 844 m 594 838 q 574 812 585 812 q 568 818 568 812 q 529 805 547 805 l 496 812 l 469 687 q 535 549 535 646 l 568 549 l 568 536 q 535 523 535 536 l 529 497 l 574 490 q 588 503 588 490 l 555 503 l 555 510 q 594 523 555 523 l 594 595 q 614 621 608 621 l 608 635 q 633 694 619 694 l 640 694 l 640 595 l 647 595 l 647 680 l 640 713 q 653 733 653 713 q 594 838 607 834 m 214 615 l 220 602 q 208 589 220 589 q 201 595 208 595 l 208 562 l 194 543 l 233 536 q 253 543 246 543 q 260 536 253 536 q 385 707 312 673 q 410 818 410 810 l 404 818 q 214 615 303 768 m 365 654 q 351 635 365 635 q 345 641 351 641 q 279 536 303 593 l 345 536 q 378 654 355 536 l 365 654 m 456 641 q 444 536 456 616 q 509 549 473 549 q 456 641 482 634 m 345 628 l 358 628 l 358 608 q 345 595 358 595 l 345 628 m 469 530 q 509 503 469 521 l 509 536 l 503 536 l 469 530 m 181 444 l 181 319 l 188 287 q 168 248 176 287 q 227 156 192 191 l 240 162 l 286 149 l 286 162 q 312 287 302 264 q 240 437 240 356 l 194 437 l 181 444 m 404 333 l 410 333 q 463 385 417 333 q 483 372 483 378 q 397 274 483 334 q 378 162 385 173 l 385 162 q 574 444 493 212 l 529 444 l 496 392 q 483 405 483 392 q 489 444 489 413 l 463 437 l 450 444 q 404 333 414 444 m 273 437 l 273 431 q 319 339 273 372 q 338 437 319 404 l 273 437 m 450 353 l 450 346 q 463 359 463 346 l 463 366 q 450 353 450 363 m 181 248 l 201 248 q 227 189 201 227 q 214 176 227 176 q 181 248 181 231 z "},"A":{"ha":621,"x_min":-21,"x_max":599,"o":"m 503 974 q 580 922 580 948 q 599 877 580 905 q 593 858 599 858 l 599 825 l 599 819 q 567 664 567 713 l 567 651 l 573 651 l 586 748 l 599 748 q 586 560 586 661 l 586 554 l 599 554 l 599 147 q 580 56 599 80 l 580 -14 l 567 -14 l 567 50 l 560 82 l 554 82 l 554 18 l 541 18 l 541 37 q 509 69 541 69 q 496 56 509 56 q 450 173 450 72 l 437 166 q 412 244 437 244 l 237 244 q 127 76 181 121 l 121 76 l 121 89 l 69 -1 l 43 -21 q 31 -1 31 -21 q 43 37 31 9 l 43 43 l 37 43 l 37 31 l 31 31 l 31 50 q -14 18 24 50 l -21 18 l -21 24 q 12 69 3 69 q -1 109 -1 91 q 89 340 18 144 q 121 393 114 393 q 127 386 121 386 l 334 728 l 347 728 l 347 722 l 340 709 l 340 703 l 347 703 q 367 761 367 753 q 354 774 354 761 q 437 961 397 899 q 503 974 496 974 m 315 670 l 315 664 q 328 677 328 664 l 328 683 q 315 670 315 681 m 431 593 l 347 425 l 360 425 q 373 444 360 444 q 399 425 399 441 l 418 425 q 431 463 418 449 l 431 515 l 444 515 l 444 431 l 450 431 l 450 483 q 431 593 446 593 m 121 425 l 134 425 l 134 418 q 127 399 127 406 l 115 399 l 115 406 q 121 425 121 418 m 354 399 l 354 393 l 412 393 l 412 399 l 354 399 m 127 199 q 173 283 157 220 q 127 199 160 283 m 82 179 q 76 160 82 172 l 76 153 l 82 153 q 89 173 82 160 l 89 179 l 82 179 z "},"B":{"ha":575,"x_min":-9,"x_max":581,"o":"m 289 998 q 417 875 289 978 q 522 776 417 866 l 551 734 l 551 729 l 540 729 q 581 623 581 664 l 581 594 q 423 425 502 450 l 464 372 l 464 366 l 452 366 q 493 261 493 302 l 493 232 q 149 16 385 16 q 131 33 149 20 l 119 27 l 107 27 l 78 33 q 37 -90 78 -31 l 31 -90 q 55 56 43 5 l 31 56 q 8 4 20 4 l 2 4 l 2 62 q -9 74 2 74 l -3 86 l -3 168 q 66 513 -3 256 q 26 553 66 523 l 26 559 l 66 559 q 90 705 84 705 q 119 875 106 705 l 125 875 l 136 869 l 136 892 l 113 916 l 113 922 q 154 928 131 922 q 160 922 154 922 l 166 962 l 178 962 q 189 928 178 928 q 207 975 189 970 l 224 975 q 248 951 233 975 q 283 998 283 960 l 289 998 m 289 957 q 359 886 289 937 l 359 892 q 294 957 353 892 l 289 957 m 289 764 q 265 647 265 667 l 271 618 q 254 600 262 618 l 271 600 l 271 594 l 254 571 q 318 524 290 553 q 406 571 366 562 l 429 600 l 429 618 q 388 670 404 646 l 388 676 q 417 653 414 653 q 289 764 380 709 m 557 635 l 557 629 q 564 606 564 619 l 569 606 l 569 618 q 564 635 564 629 l 557 635 m 242 547 q 271 524 244 536 l 271 530 l 248 547 l 242 547 m 160 319 l 160 308 q 183 255 183 281 q 166 238 175 255 l 183 238 l 183 232 q 136 144 166 212 l 149 150 l 160 150 q 166 144 166 150 q 283 197 229 155 q 341 238 311 197 l 341 255 q 300 308 317 283 l 300 314 l 330 290 q 218 390 311 329 l 189 390 q 160 319 176 390 m 470 273 l 470 267 q 475 243 475 257 l 481 243 l 481 255 q 475 273 475 267 l 470 273 z "},"C":{"ha":587,"x_min":-18,"x_max":671,"o":"m 406 989 l 433 982 l 479 989 q 605 883 503 989 q 625 909 625 883 q 638 896 638 907 l 618 863 l 631 863 q 644 883 631 883 l 671 883 q 605 843 654 843 q 598 836 605 836 q 591 843 598 843 q 572 817 582 817 q 565 823 565 817 q 526 810 543 810 l 479 823 l 412 823 q 207 618 338 823 l 214 604 q 201 591 214 591 q 194 597 201 597 l 201 564 q 168 465 189 545 q 174 339 174 393 l 174 319 l 180 286 q 161 246 170 286 q 220 153 184 189 l 233 160 q 313 134 237 160 l 320 134 q 410 167 364 134 q 522 379 435 182 l 535 379 l 535 372 l 515 326 l 515 319 l 522 319 q 542 359 529 359 l 549 359 q 535 227 535 245 l 555 227 q 529 153 529 170 l 515 147 l 522 114 l 522 107 q 307 1 421 1 q 247 -12 307 -8 q -18 353 25 -12 q 28 564 -1 564 q 87 757 51 719 q 247 943 87 795 l 260 943 l 260 936 l 220 883 l 227 883 q 412 962 318 962 l 399 982 q 406 989 406 982 m 605 929 l 625 929 l 625 909 l 618 909 q 605 922 605 909 l 605 929 m 141 916 l 147 916 q 161 903 161 913 l 161 896 q 127 876 161 884 l 121 889 l 121 896 q 141 916 121 905 m 174 246 l 194 246 q 220 186 194 224 q 207 174 220 174 q 174 246 174 230 z "},"D":{"ha":600,"x_min":0,"x_max":581,"o":"m 211 977 l 223 970 l 236 977 q 562 760 357 943 q 581 696 581 718 l 574 683 l 581 670 l 574 657 l 581 645 l 543 479 l 549 466 q 485 191 502 202 l 402 127 q 396 134 396 127 l 166 0 q 0 217 94 0 l 6 217 q 38 191 35 191 q 58 198 51 198 q 90 134 90 150 l 96 134 l 96 153 l 83 172 l 83 185 q 134 127 92 185 q 140 134 140 127 l 172 127 q 262 198 204 127 l 275 204 l 268 217 q 351 300 268 224 l 408 651 q 275 772 408 696 q 236 562 236 580 l 223 562 l 223 587 l 217 587 q 140 281 217 416 l 127 288 l 121 262 l 109 262 l 109 268 q 121 383 109 319 l 121 402 l 115 402 q 90 313 111 313 q 83 319 90 319 l 77 288 l 64 288 q 51 313 64 302 q 58 383 51 326 l 58 396 l 51 396 q 45 345 45 350 l 32 345 q 83 587 32 392 q 77 600 83 600 q 71 606 71 600 q 96 747 90 727 q 90 753 96 753 q 102 862 102 836 l 115 862 q 198 977 115 977 l 211 977 m 64 587 l 77 587 l 77 562 l 64 562 l 64 587 m 58 549 l 71 549 l 71 530 l 58 530 l 58 549 z "},"E":{"ha":596,"x_min":0,"x_max":623,"o":"m 288 977 q 341 970 304 977 q 426 977 384 977 q 616 924 616 956 l 610 911 l 623 911 l 623 905 l 570 905 q 498 911 543 905 l 492 911 l 492 905 q 564 891 517 905 l 564 885 l 557 871 q 564 865 564 871 l 517 839 l 426 839 l 426 832 l 452 832 l 452 819 l 282 819 l 249 812 l 249 819 q 210 780 210 819 l 210 773 l 216 773 q 439 780 302 773 q 465 773 450 773 q 426 753 465 760 l 426 747 l 433 747 q 472 760 459 760 l 472 747 l 452 747 l 452 734 l 459 734 l 485 747 q 524 734 507 734 q 531 741 524 741 q 551 694 537 715 q 374 517 531 640 l 367 517 l 393 551 l 387 551 q 223 380 223 404 q 190 275 190 345 l 190 249 l 197 249 q 275 302 258 302 l 275 295 l 361 347 l 387 341 l 420 361 l 426 347 l 420 347 q 426 328 426 334 l 433 328 l 479 361 l 485 347 q 393 262 394 269 l 400 262 q 511 354 492 354 l 517 341 q 118 0 223 33 q 26 39 31 28 q 0 125 7 125 q 66 446 1 241 q 85 479 85 446 l 98 479 l 92 446 l 92 426 l 98 426 q 190 557 98 501 q 236 596 190 563 l 249 596 l 216 557 l 223 557 q 315 635 283 635 l 315 642 l 308 642 q 59 590 238 590 q 26 649 26 641 q 66 780 33 743 q 92 826 66 826 l 92 839 q 52 905 52 884 l 52 924 q 288 977 52 962 m 420 918 l 420 911 l 479 911 l 479 918 l 420 918 m 347 505 l 347 498 q 328 479 347 489 l 321 479 q 347 505 321 489 z "},"F":{"ha":505,"x_min":-31,"x_max":562,"o":"m 250 975 q 299 968 266 975 q 378 975 340 975 q 556 926 556 956 l 550 913 l 562 913 l 562 907 l 513 907 q 446 913 488 907 l 439 913 l 439 907 q 507 895 464 907 l 507 889 l 500 877 q 507 871 507 877 l 464 846 l 378 846 l 378 840 l 403 840 l 403 828 l 244 828 l 214 822 l 214 828 q 177 791 177 828 l 177 785 l 183 785 q 391 791 263 785 q 415 785 401 785 q 378 767 415 773 l 378 761 l 385 761 q 421 773 410 773 l 421 761 l 403 761 l 403 749 l 409 749 l 433 761 q 470 749 454 749 q 476 755 470 755 q 494 712 482 730 q 330 547 477 661 l 323 547 l 348 578 l 342 578 q 189 418 189 441 q 110 138 151 366 q 85 64 101 138 q 37 -94 72 64 l 18 -113 l 12 -113 q 49 83 26 10 l 37 89 q 49 156 37 97 l 49 162 l 43 162 q -12 -15 9 7 l -18 -15 l -18 46 q -31 58 -18 58 l -18 113 q -24 168 -24 146 q 61 511 -1 391 l 73 511 l 67 480 l 67 462 l 73 462 q 159 584 73 532 q 201 621 159 589 l 214 621 l 183 584 l 189 584 q 275 657 246 657 l 275 663 l 269 663 q 37 614 204 614 q 6 669 6 662 q 43 791 12 757 q 67 834 43 834 l 67 846 q 31 907 31 888 l 31 926 q 250 975 31 960 m 372 920 l 372 913 l 427 913 l 427 920 l 372 920 m 305 535 l 305 529 q 287 511 305 520 l 281 511 q 305 535 281 520 z "},"G":{"ha":694,"x_min":0,"x_max":682,"o":"m 397 974 l 422 968 l 465 974 q 583 875 488 974 q 602 899 602 875 q 614 887 614 897 l 595 856 l 608 856 q 621 875 608 875 l 645 875 q 583 838 630 838 q 577 831 583 831 q 570 838 577 838 q 552 812 562 812 q 546 819 546 812 q 509 806 526 806 l 465 819 l 404 819 q 211 627 334 819 l 217 614 q 205 602 217 602 q 199 608 205 608 l 205 577 q 174 484 195 558 q 180 366 180 416 l 180 347 l 186 316 q 168 279 176 316 q 223 193 190 226 l 236 199 q 310 174 239 199 l 316 174 q 453 273 412 205 q 496 298 496 273 l 515 479 l 440 479 q 410 460 410 479 l 353 460 q 310 486 320 460 q 316 492 310 492 l 304 517 q 310 523 310 517 q 292 535 292 523 q 304 548 304 535 l 292 548 l 292 560 l 304 560 l 304 566 q 279 578 279 566 q 335 597 335 586 q 298 622 312 597 q 353 641 332 641 q 552 635 500 635 l 558 647 l 570 641 l 595 641 l 614 653 q 664 610 664 644 l 682 479 q 645 112 666 479 q 621 75 629 75 l 614 75 l 614 118 l 608 118 q 589 0 608 0 l 570 0 q 540 31 540 14 l 527 25 l 509 25 q 453 56 453 37 q 459 112 459 90 l 453 112 q 254 37 384 56 l 248 37 q 0 378 40 37 q 43 577 16 577 q 99 757 64 722 q 248 930 99 793 l 260 930 l 260 924 l 223 875 l 229 875 q 404 949 315 949 l 391 968 q 397 974 397 968 m 583 918 l 602 918 l 602 899 l 595 899 q 583 912 583 899 l 583 918 m 149 905 l 155 905 q 168 893 168 904 l 168 887 q 136 869 168 876 l 130 881 l 130 887 q 149 905 130 896 m 440 529 l 440 523 l 477 523 l 477 529 l 440 529 m 180 279 l 199 279 q 223 223 199 259 q 211 211 223 211 q 180 279 180 264 z "},"H":{"ha":680,"x_min":-28,"x_max":703,"o":"m 656 1096 l 662 1096 q 626 906 648 977 l 638 900 q 626 834 638 892 l 626 829 l 632 829 q 686 1001 665 979 l 691 1001 l 691 941 q 703 930 693 930 l 691 876 q 697 823 697 844 q 626 496 697 736 q 638 425 638 454 q 632 418 638 418 l 638 406 q 614 347 638 380 q 608 288 608 316 q 572 115 583 288 l 566 115 l 555 121 l 549 62 l 537 62 l 537 74 l 531 74 q 525 26 525 31 l 513 26 l 513 62 l 501 62 q 484 14 501 18 l 465 14 l 436 38 l 412 38 l 412 3 q 400 -9 412 -9 q 394 8 394 2 l 400 50 q 394 56 400 56 l 400 85 l 400 115 l 394 115 l 394 79 l 382 79 q 430 365 382 153 l 424 365 q 252 389 402 365 l 252 401 l 275 401 l 275 406 l 210 406 l 198 412 q 133 151 162 327 q 103 62 119 133 q 56 -93 90 62 q 37 -111 41 -111 l 32 -111 q 67 79 45 9 l 56 85 q 67 151 56 94 l 67 157 l 61 157 q 8 -16 28 6 l 2 -16 l 2 44 q -10 56 2 56 l 2 109 q -4 163 -4 142 q 50 436 -4 226 l 43 436 q -16 460 -3 451 l -10 472 l -10 478 l -28 478 l -28 490 l 50 490 l 61 484 l 61 496 l 32 496 q 14 513 23 496 q 20 519 20 513 l -10 519 l -10 531 l 8 531 l 8 537 l -4 537 l -4 549 l 67 543 q 43 555 67 555 l 43 567 l 67 567 q 91 698 87 696 q 121 870 107 698 l 127 870 l 138 864 l 144 924 l 157 924 l 157 911 l 162 911 q 168 959 162 917 l 180 959 l 180 924 l 192 924 q 210 971 192 967 l 228 971 q 258 947 254 947 l 269 947 q 287 995 281 947 l 293 995 q 299 977 299 983 l 293 935 q 299 930 293 930 l 293 900 l 293 870 l 299 870 l 299 906 l 311 906 q 239 549 311 793 l 245 549 q 424 526 400 531 q 448 531 434 531 l 448 526 q 507 603 496 526 q 561 834 531 673 q 590 930 576 852 q 632 1060 608 930 q 656 1096 648 1096 m 234 537 l 234 531 l 275 531 l 275 537 l 234 537 z "},"I":{"ha":222,"x_min":-22,"x_max":284,"o":"m 267 983 q 273 966 273 972 l 267 926 q 273 920 267 920 l 267 892 l 267 864 l 273 864 l 273 898 l 284 898 q 142 320 284 753 q 92 117 120 195 q 63 26 63 59 q 24 -71 36 -71 l 18 -71 q 52 111 31 43 l 41 117 q 52 178 41 124 l 52 184 l 46 184 q -5 20 14 41 l -10 20 l -10 77 q -22 88 -10 88 l -10 139 q -16 190 -16 170 q 52 507 -16 267 l 46 530 q 75 700 71 694 q 103 864 90 700 l 109 864 l 120 858 l 125 915 l 137 915 l 137 903 l 142 903 q 148 949 148 944 l 159 949 l 159 915 l 171 915 q 188 960 171 956 l 205 960 q 233 937 230 937 l 244 937 q 261 983 256 937 l 267 983 z "},"J":{"ha":498,"x_min":-175,"x_max":573,"o":"m 549 1063 q 567 1045 558 1063 q 519 848 519 878 l 519 842 l 526 842 q 562 973 542 924 l 573 973 q 418 363 573 891 l 424 363 q 435 351 435 361 q 376 243 376 315 q 316 147 365 243 q 208 45 309 146 l 196 45 l 196 52 l 232 99 l 226 99 q 58 27 144 27 l 71 9 q 64 3 64 9 l 41 9 l -1 3 q -115 99 -24 3 q -133 75 -133 99 q -145 87 -145 75 l -127 117 l -139 117 q -151 99 -139 99 l -175 99 q -115 135 -160 135 q -109 141 -115 141 q -103 135 -109 135 q -85 159 -94 159 q -79 153 -79 159 q -43 165 -60 165 l -1 153 l 58 153 q 244 338 124 153 l 238 351 q 250 363 240 363 q 256 357 250 357 l 250 387 l 280 470 q 346 710 334 710 l 352 710 l 346 698 l 346 650 l 340 614 l 340 608 l 346 608 q 424 907 346 708 l 435 907 l 435 895 q 424 859 435 879 l 424 848 l 429 848 q 460 919 446 919 l 465 919 l 460 895 l 460 883 l 465 883 q 549 1063 465 952 m 501 793 q 496 770 501 780 l 496 764 l 501 764 q 507 781 501 770 l 507 793 l 501 793 m 429 751 l 424 715 l 424 698 l 429 698 q 435 740 429 716 l 435 751 l 429 751 m 316 105 l 322 93 l 322 87 q 304 69 322 79 l 298 69 q 286 81 286 69 l 286 87 q 316 105 286 98 m -133 75 l -127 75 q -115 63 -115 73 l -115 57 l -133 57 l -133 75 z "},"K":{"ha":559,"x_min":-18,"x_max":619,"o":"m 277 995 q 283 977 283 983 l 277 937 q 283 931 277 931 l 277 902 l 277 873 l 283 873 l 283 908 l 294 908 q 260 688 294 838 q 312 751 306 751 q 410 890 332 762 l 416 890 l 416 879 l 422 879 q 463 937 422 895 q 474 925 465 925 q 497 954 474 943 l 503 943 q 474 902 496 943 l 474 897 q 526 949 478 897 l 584 897 q 613 937 600 934 l 619 925 l 619 920 q 555 815 606 906 l 567 815 q 590 850 569 837 l 596 850 l 596 844 q 335 508 520 710 q 474 201 355 442 q 486 166 486 182 l 480 166 q 544 22 544 47 l 544 10 l 532 10 l 445 166 q 405 224 420 166 l 393 224 q 469 56 469 71 l 451 56 q 387 126 451 75 q 323 207 387 140 q 219 393 224 393 q 132 230 132 272 q 75 50 103 114 q 28 -83 45 -83 l 22 -83 q 57 102 35 34 l 45 109 q 57 172 45 116 l 57 178 l 52 178 q -1 10 19 31 l -7 10 l -7 68 q -18 79 -7 79 l -7 132 q -12 184 -12 163 q 57 508 -12 262 l 52 532 q 80 705 76 701 q 109 873 96 705 l 115 873 l 127 867 l 132 925 l 144 925 l 144 913 l 150 913 q 155 960 155 955 l 167 960 l 167 925 l 178 925 q 196 972 178 968 l 214 972 q 242 949 239 949 l 254 949 q 271 995 266 949 l 277 995 z "},"L":{"ha":443,"x_min":3,"x_max":431,"o":"m 244 1000 l 264 1000 q 277 981 277 1000 q 244 773 244 810 l 244 747 l 251 747 q 277 907 251 787 l 291 907 l 291 901 q 284 833 284 842 l 291 820 q 177 212 218 397 l 258 212 q 291 232 291 212 l 351 232 q 398 205 387 232 q 391 198 398 198 l 405 172 q 398 165 398 172 q 418 151 418 165 q 405 138 405 149 l 418 138 l 418 125 l 405 125 l 405 118 q 431 104 431 118 q 371 85 371 96 q 411 58 396 85 q 351 38 375 38 q 137 45 193 45 l 130 31 l 117 38 l 90 38 l 71 24 l 10 51 l 17 85 l 17 125 q 3 198 17 172 q 57 586 24 412 l 71 586 l 64 572 q 71 492 71 526 l 77 492 q 130 820 77 654 l 144 820 q 137 766 144 793 l 137 753 l 144 753 q 170 833 155 833 l 177 833 l 170 807 l 170 793 l 177 793 q 211 927 177 829 q 224 954 211 954 q 231 947 224 947 q 244 1000 231 958 m 123 720 l 123 693 l 130 693 l 130 720 l 123 720 m 231 707 l 231 680 l 237 680 l 237 707 l 231 707 m 157 660 l 157 633 l 164 633 l 164 660 l 157 660 m 151 626 l 151 586 l 157 586 l 157 626 l 151 626 m 218 165 l 218 158 l 258 158 l 258 165 l 218 165 z "},"M":{"ha":1044,"x_min":0,"x_max":1130,"o":"m 1012 1006 l 1074 1006 q 1130 981 1122 1006 q 1080 726 1130 930 l 1067 726 l 1074 758 l 1074 770 l 1067 770 q 1018 459 1018 527 l 1006 459 l 1006 472 l 1000 472 l 1000 435 l 1012 416 l 1006 416 l 994 422 l 937 112 l 925 112 l 925 168 l 919 168 q 906 62 906 68 l 894 62 l 894 87 l 888 87 q 876 25 876 37 l 876 0 l 863 0 l 888 311 l 888 335 l 882 335 q 819 81 862 155 q 813 106 813 92 l 807 106 q 782 56 807 64 q 776 62 782 62 q 838 472 795 242 q 832 496 832 483 q 850 547 850 500 l 850 571 l 844 571 q 739 410 844 551 l 732 410 q 764 472 764 458 q 596 205 625 290 l 596 174 q 577 87 596 110 l 577 18 l 565 18 l 565 81 l 559 112 l 553 112 l 553 50 l 540 50 l 540 68 q 509 99 540 99 q 496 87 509 87 q 453 155 473 89 q 410 224 418 155 q 416 397 410 246 l 422 397 q 416 404 422 404 q 447 540 435 522 l 447 590 q 435 602 447 602 q 317 366 317 379 l 304 366 l 317 410 l 317 416 l 311 416 q 143 106 223 178 l 136 106 l 136 118 l 81 25 l 62 12 q 50 31 50 12 q 62 68 50 42 l 62 75 l 56 75 l 56 62 l 50 62 l 50 81 q 6 50 43 81 l 0 50 l 0 56 q 31 99 24 99 q 0 168 0 151 q 118 397 0 189 q 130 429 130 418 l 143 429 l 143 422 q 136 404 136 410 q 341 732 341 722 l 354 732 l 354 726 l 348 714 l 348 708 l 354 708 q 372 764 372 757 q 360 776 360 764 q 441 956 401 896 q 503 968 497 968 q 583 888 583 955 q 596 876 596 886 q 590 857 596 857 l 596 825 l 596 819 l 565 708 q 571 689 571 696 l 577 689 q 583 751 577 730 l 596 751 l 583 633 l 608 614 q 596 553 596 562 q 614 596 608 553 l 627 596 l 602 478 q 764 683 729 661 l 888 844 l 888 838 l 882 825 l 882 819 l 888 819 q 1012 1006 931 935 m 1061 708 l 1074 708 l 1074 689 l 1061 689 l 1061 708 m 323 677 l 323 671 q 335 683 335 671 l 335 689 q 323 677 323 687 m 1043 559 l 1049 559 l 1049 553 q 1037 540 1049 540 l 1031 540 l 1031 547 q 1043 559 1032 559 m 205 286 l 205 279 l 211 279 q 242 341 211 295 l 242 348 q 205 286 222 334 m 143 224 q 186 304 172 244 q 143 224 174 304 m 99 205 q 93 186 99 198 l 93 180 l 99 180 q 106 199 99 186 l 106 205 l 99 205 m 776 43 l 789 43 l 789 25 l 776 25 l 776 43 z "},"N":{"ha":716,"x_min":13,"x_max":755,"o":"m 28 23 q 50 104 38 46 l 43 106 l 33 83 l 22 88 q 54 192 51 186 l 48 195 l 25 142 l 13 147 l 87 456 q 79 452 81 458 l 70 463 l 89 476 l 104 511 l 98 513 l 94 502 l 82 507 q 164 819 110 570 l 158 821 l 153 809 l 146 778 l 134 783 q 193 1042 172 994 q 256 1042 212 1062 l 314 1016 q 353 790 360 916 l 359 787 l 361 793 l 361 808 l 363 813 l 413 610 q 479 352 436 575 q 507 478 501 464 l 519 473 l 496 358 l 502 355 l 505 361 q 514 399 512 395 q 612 871 555 744 l 623 865 l 631 883 l 638 915 l 644 912 q 723 981 682 983 l 741 974 l 750 962 q 751 886 755 949 q 711 688 701 692 q 677 452 673 537 l 580 92 l 554 33 q 459 -8 519 -35 q 452 37 461 33 q 450 3 447 27 l 439 -6 q 368 102 375 22 q 326 413 386 160 q 329 342 319 399 l 323 345 q 291 539 283 520 l 286 542 l 275 519 q 272 465 256 476 q 256 444 266 452 q 144 34 201 210 q 136 31 138 37 q 133 87 116 49 l 127 90 q 111 69 121 77 q 158 334 102 156 l 153 336 l 142 313 l 37 12 l 25 17 l 28 23 m 125 22 l 136 16 l 128 -1 l 117 4 l 125 22 m 98 590 q 92 607 88 595 l 94 613 l 100 610 q 106 593 111 605 l 104 587 l 98 590 m 132 763 l 144 758 l 136 740 l 125 745 l 132 763 z "},"O":{"ha":731,"x_min":-285,"x_max":988,"o":"m 515 1146 q 549 1107 549 1127 q 522 949 549 1086 q 608 877 547 949 q 627 903 627 877 q 640 890 640 901 l 621 857 l 633 857 q 647 877 633 877 l 673 877 l 660 857 l 660 851 q 732 687 701 851 q 739 608 732 629 l 726 562 q 771 556 771 562 l 798 569 q 948 530 948 551 l 948 517 l 942 503 l 988 503 l 988 490 q 928 464 971 490 q 896 458 918 458 l 824 458 q 798 451 809 458 q 771 458 786 458 l 719 458 q 667 313 711 458 q 542 136 622 196 q 338 -1 475 57 l 292 -231 l 279 -231 q 253 -165 279 -191 l 253 -159 l 267 -159 l 267 -120 q 279 -54 267 -107 l 279 -41 l 273 -41 q 260 -74 273 -74 l 247 -67 l 253 -35 l 253 -8 q -9 353 33 -8 q -3 405 -3 378 l -3 437 q -29 451 -13 437 l -35 451 q -55 444 -55 451 q -285 497 -190 444 l -285 510 q -206 536 -279 510 q -127 523 -161 523 l -121 523 q -9 536 -62 523 l 17 536 q 70 720 37 550 q 135 825 81 720 q 253 937 143 825 l 267 937 l 267 930 l 227 877 l 233 877 q 417 956 323 956 l 404 976 l 417 982 l 456 976 l 456 982 q 515 1146 456 1069 m 608 923 l 627 923 l 627 903 l 621 903 q 608 917 608 903 l 608 923 m 149 910 l 155 910 q 168 897 168 908 l 168 890 q 135 871 168 879 l 129 884 l 129 890 q 149 910 129 900 m 614 844 l 614 838 q 640 798 631 798 l 640 831 q 627 844 640 844 l 614 844 m 594 838 q 574 812 585 812 q 568 818 568 812 q 529 805 547 805 l 496 812 l 469 687 q 535 549 535 646 l 568 549 l 568 536 q 535 523 535 536 l 529 497 l 574 490 q 588 503 588 490 l 555 503 l 555 510 q 594 523 555 523 l 594 595 q 614 621 608 621 l 608 635 q 633 694 619 694 l 640 694 l 640 595 l 647 595 l 647 680 l 640 713 q 653 733 653 713 q 594 838 607 834 m 214 615 l 220 602 q 208 589 220 589 q 201 595 208 595 l 208 562 l 194 543 l 233 536 q 253 543 246 543 q 260 536 253 536 q 385 707 312 673 q 410 818 410 810 l 404 818 q 214 615 303 768 m 365 654 q 351 635 365 635 q 345 641 351 641 q 279 536 303 593 l 345 536 q 378 654 355 536 l 365 654 m 456 641 q 444 536 456 616 q 509 549 473 549 q 456 641 482 634 m 345 628 l 358 628 l 358 608 q 345 595 358 595 l 345 628 m 469 530 q 509 503 469 521 l 509 536 l 503 536 l 469 530 m 181 444 l 181 319 l 188 287 q 168 248 176 287 q 227 156 192 191 l 240 162 l 286 149 l 286 162 q 312 287 302 264 q 240 437 240 356 l 194 437 l 181 444 m 404 333 l 410 333 q 463 385 417 333 q 483 372 483 378 q 397 274 483 334 q 378 162 385 173 l 385 162 q 574 444 493 212 l 529 444 l 496 392 q 483 405 483 392 q 489 444 489 413 l 463 437 l 450 444 q 404 333 414 444 m 273 437 l 273 431 q 319 339 273 372 q 338 437 319 404 l 273 437 m 450 353 l 450 346 q 463 359 463 346 l 463 366 q 450 353 450 363 m 181 248 l 201 248 q 227 189 201 227 q 214 176 227 176 q 181 248 181 231 z "},"P":{"ha":572,"x_min":3,"x_max":593,"o":"m 302 998 q 430 876 302 979 q 535 777 430 867 l 564 735 l 564 730 l 553 730 q 593 624 593 665 l 593 595 q 249 378 486 378 q 231 396 249 383 q 167 302 182 396 q 126 121 167 250 q 68 -71 97 53 l 50 -89 l 44 -89 q 79 98 58 29 l 68 104 q 79 168 68 112 l 79 174 l 73 174 q 21 5 41 26 l 15 5 l 15 63 q 3 75 15 75 l 15 127 q 9 180 9 159 q 79 507 9 259 l 73 531 q 103 706 98 701 q 132 876 119 706 l 138 876 l 149 869 l 149 893 l 126 916 l 126 922 q 167 928 144 922 q 173 922 167 922 l 179 963 l 191 963 q 202 928 191 928 q 220 975 202 971 l 237 975 q 260 951 246 975 q 296 998 296 960 l 302 998 m 302 958 q 372 887 302 937 l 372 893 q 307 958 366 893 l 302 958 m 302 764 q 278 648 278 668 l 284 618 q 267 601 275 618 l 284 601 l 284 595 q 237 507 267 575 l 249 513 l 260 513 q 267 507 267 513 q 383 560 329 517 q 441 601 412 560 l 441 618 q 401 671 417 646 l 401 677 l 430 654 q 302 764 393 710 m 570 636 l 570 630 q 576 607 576 620 l 582 607 l 582 618 q 576 636 576 630 l 570 636 z "},"Q":{"ha":728,"x_min":-3,"x_max":729,"o":"m 472 973 q 729 621 687 973 q 684 415 712 415 q 626 229 662 265 q 575 139 626 218 q 600 75 600 100 l 594 75 l 581 81 l 581 68 q 588 49 588 56 l 581 49 q 568 68 568 49 l 562 68 l 562 62 q 613 -41 594 18 q 633 -60 623 -41 l 620 -66 q 639 -118 639 -98 l 626 -124 l 613 -124 q 492 49 606 -123 l 485 49 l 485 43 q 555 -73 533 -25 l 543 -79 q 440 62 440 50 q 312 30 358 30 l 325 11 q 318 4 318 11 l 292 11 l 248 4 q 125 107 224 4 q 106 81 106 107 q 94 94 94 81 l 113 126 l 100 126 q 87 107 100 107 l 62 107 l 75 126 l 75 132 q 3 299 28 138 q -3 370 3 347 q 113 755 32 609 q 453 967 292 967 q 472 973 453 973 m 222 665 q 485 325 269 611 q 511 363 494 347 l 504 376 q 517 389 506 389 q 524 382 517 382 l 517 415 q 549 511 528 434 q 543 633 543 581 l 543 652 l 536 684 q 555 723 547 684 q 498 812 532 779 l 485 806 l 408 832 l 401 832 q 235 697 292 795 q 222 665 224 697 m 511 793 q 543 723 543 739 l 524 723 q 498 781 524 744 q 511 793 500 793 m 138 447 l 138 382 q 119 357 125 357 l 125 345 q 100 287 114 287 l 94 287 l 94 382 l 87 382 l 87 299 l 94 267 q 81 248 81 267 q 138 145 125 149 q 158 171 148 171 q 164 165 164 171 q 203 178 185 178 l 248 165 l 312 165 l 357 178 q 170 473 196 417 l 164 473 q 138 447 154 473 m 420 357 q 472 299 420 342 l 472 306 l 420 357 m 94 184 l 94 152 q 106 139 96 139 l 119 139 l 119 145 q 94 184 102 184 m 549 132 l 549 120 l 562 113 q 555 132 555 125 l 549 132 m 106 81 l 113 81 q 125 68 125 79 l 125 62 l 106 62 l 106 81 z "},"R":{"ha":753,"x_min":-7,"x_max":823,"o":"m 231 937 q 329 897 321 897 q 336 903 336 897 l 369 897 l 408 897 l 408 884 l 395 884 l 395 878 l 401 878 l 441 890 q 461 884 454 884 q 488 890 476 884 q 777 831 777 867 q 823 713 823 805 q 777 660 795 660 l 751 653 l 751 647 l 758 647 q 777 653 770 653 l 777 640 q 467 548 671 594 l 467 534 q 593 502 480 534 l 593 495 l 586 482 q 705 403 705 456 q 678 205 692 241 l 665 205 q 678 277 678 261 l 678 298 l 672 298 q 606 47 637 84 l 580 -19 l 566 -19 l 566 -5 l 560 -5 l 560 -39 l 547 -39 l 534 -32 l 534 -58 l 514 -58 q 500 -5 514 -52 l 500 41 l 488 60 l 527 330 q 217 429 469 375 q 125 179 153 282 q 92 133 102 179 l 85 133 q 79 139 79 133 q 26 14 58 139 l 13 14 l 13 21 q 33 133 13 34 l 26 146 q 33 172 33 157 l 33 179 q 20 185 20 179 q 73 463 33 292 q 46 475 46 463 l 46 502 q 52 528 46 517 l 46 541 q 105 660 46 554 q 119 759 105 696 q 33 805 33 791 l -7 831 q 0 838 0 831 l 33 831 l 98 864 l 92 878 l 92 884 l 132 884 q 171 924 132 893 l 184 917 l 204 917 l 204 910 l 211 910 q 231 937 214 937 m 323 759 q 303 686 303 703 l 309 686 l 467 713 q 481 699 470 699 q 593 739 593 722 l 593 745 q 323 759 552 759 m 52 291 q 39 218 52 279 l 39 212 l 46 212 l 59 277 l 59 291 l 52 291 z "},"S":{"ha":545,"x_min":0,"x_max":545,"o":"m 388 977 l 413 958 q 438 964 427 958 q 513 914 498 914 q 545 845 543 878 q 363 645 545 734 q 332 676 353 676 l 332 688 l 338 701 q 326 713 326 701 l 345 739 q 332 751 332 739 q 395 839 352 756 l 382 833 l 351 839 l 313 833 l 313 839 q 188 789 212 789 q 163 745 163 772 l 163 739 l 200 682 l 200 676 l 188 676 q 175 695 188 695 l 175 688 q 326 526 176 677 l 313 519 q 300 532 313 532 l 300 526 q 488 332 488 369 q 507 294 496 332 q 500 288 507 288 l 507 244 q 407 75 507 182 q 388 69 395 69 l 395 56 l 395 50 q 294 12 369 50 l 275 12 l 275 25 l 263 25 q 238 0 263 0 l 238 6 l 244 19 l 238 19 q 219 12 219 19 q 94 56 94 21 q 25 194 66 56 l 25 200 l 37 200 q 25 238 37 211 q 31 244 25 244 l 25 275 l 25 294 l 50 294 l 50 300 q 69 413 50 325 l 81 413 l 81 382 l 87 382 l 87 426 l 100 426 q 163 169 120 169 q 213 151 167 151 l 219 151 q 351 225 278 151 l 319 300 q 244 407 290 300 l 200 451 l 194 451 q 263 345 263 370 l 256 345 l 138 469 l 144 482 q 12 639 70 534 q 25 651 25 639 q 0 751 0 697 l 0 783 q 326 977 119 977 l 388 977 z "},"T":{"ha":676,"x_min":0,"x_max":1010,"o":"m 361 977 l 421 950 q 749 937 636 937 q 796 943 770 937 q 1010 909 826 943 l 1010 897 l 983 897 q 956 903 968 897 q 937 897 943 897 q 930 903 930 897 q 909 897 923 903 q 749 909 891 897 l 736 909 l 736 903 q 803 883 803 903 l 796 869 l 850 869 l 850 857 l 909 857 l 909 843 q 675 796 711 829 q 515 783 559 783 q 428 789 432 789 q 374 415 408 597 l 361 415 l 368 428 q 361 509 361 475 l 355 509 q 301 180 355 347 l 288 180 q 294 234 288 208 l 294 248 l 288 248 q 261 168 276 168 l 254 168 l 261 194 l 261 208 l 254 208 q 220 73 254 172 q 208 47 220 47 q 201 54 208 54 q 187 0 201 43 l 168 0 q 154 20 154 0 q 187 227 187 191 l 187 254 l 180 254 q 154 94 180 214 l 140 94 l 140 100 q 147 168 140 109 l 140 180 q 254 789 214 604 l 174 789 q 140 769 140 789 l 80 769 q 33 796 44 769 q 40 803 33 803 l 26 829 q 33 836 33 829 q 14 850 14 836 q 26 863 26 850 l 14 863 l 14 876 l 26 876 l 26 883 q 0 897 0 883 q 60 916 60 905 q 20 943 35 916 q 80 963 56 963 q 294 956 238 956 l 301 970 l 315 963 l 341 963 l 361 977 m 174 843 l 174 836 l 214 836 l 214 843 l 174 843 m 274 415 l 274 374 l 281 374 l 281 415 l 274 415 m 268 368 l 268 341 l 274 341 l 274 368 l 268 368 m 194 321 l 194 294 l 201 294 l 201 321 l 194 321 m 301 308 l 301 281 l 308 281 l 308 308 l 301 308 z "},"U":{"ha":600,"x_min":0,"x_max":638,"o":"m 631 1017 l 638 1017 l 638 997 q 631 943 638 969 q 638 890 638 918 q 591 744 591 766 l 591 738 l 598 738 q 611 791 611 780 l 625 791 q 611 738 625 770 l 618 711 q 472 40 530 40 q 166 0 368 0 l 166 7 l 153 0 q 0 100 73 0 l 0 113 l 93 638 l 93 644 l 86 644 l 86 631 l 73 631 l 80 665 l 86 665 l 100 658 l 100 684 l 86 705 q 106 724 86 724 l 100 758 q 113 791 113 758 l 119 791 q 126 784 126 791 l 140 791 l 146 791 q 133 718 133 722 l 133 705 l 140 705 q 180 810 153 810 q 193 831 180 831 l 206 831 l 206 824 q 193 744 206 790 l 193 738 l 199 738 q 219 850 219 819 l 219 857 l 239 857 q 259 831 239 831 q 273 844 261 844 q 299 764 299 817 q 206 259 246 397 q 193 186 206 222 l 226 186 l 259 193 q 273 180 261 180 l 286 180 l 366 219 l 366 226 l 445 691 q 492 844 481 844 l 498 844 q 492 817 498 829 l 492 810 l 498 810 q 551 970 519 943 q 558 964 551 964 q 545 917 558 951 l 558 917 q 578 983 578 980 l 591 983 l 591 977 l 585 964 l 585 957 l 591 957 l 591 970 l 598 970 l 598 943 l 605 943 q 631 1017 618 1017 m 578 705 l 578 671 l 585 671 l 585 705 l 578 705 m 126 698 l 126 671 l 133 671 l 133 698 l 126 698 z "},"V":{"ha":563,"x_min":40,"x_max":667,"o":"m 602 998 q 615 978 615 998 l 608 952 q 615 926 615 941 q 660 959 621 926 l 667 959 q 634 907 644 907 q 667 829 667 854 q 628 610 639 792 q 589 481 624 608 l 589 461 q 544 519 544 461 l 538 519 l 538 500 l 524 500 q 511 558 524 528 q 524 591 524 579 q 311 248 311 258 l 298 248 l 298 255 l 305 268 l 305 274 l 298 274 q 279 216 279 223 q 292 203 292 214 q 208 16 249 78 q 143 3 202 16 q 66 54 66 28 q 47 100 66 71 q 53 119 47 119 l 47 151 l 47 158 q 79 313 79 264 l 79 326 l 73 326 l 60 229 l 47 229 q 60 416 60 316 l 60 422 q 40 435 49 422 l 47 468 l 47 829 q 66 920 47 897 l 66 991 l 79 991 l 79 926 l 85 895 l 92 895 l 92 959 l 104 959 l 104 939 q 137 907 104 907 q 150 920 139 920 q 195 804 195 905 l 208 810 q 234 610 234 661 l 234 604 q 227 597 234 597 q 234 591 227 591 q 214 513 227 526 l 214 461 l 201 461 l 201 545 l 195 545 l 195 494 q 214 384 199 384 q 337 629 337 616 l 350 629 l 337 584 l 337 578 l 344 578 q 518 901 434 825 l 524 901 l 524 888 l 576 978 l 602 998 m 564 823 q 557 804 564 817 l 557 798 l 564 798 q 570 817 564 804 l 570 823 l 564 823 m 473 694 q 518 778 486 694 q 473 694 488 756 m 447 720 q 415 655 447 704 l 415 649 q 454 713 435 663 l 454 720 l 447 720 m 195 668 l 195 636 l 201 636 l 201 668 l 195 668 m 318 300 l 318 294 q 331 307 331 294 l 331 313 q 318 300 318 311 z "},"W":{"ha":1029,"x_min":1,"x_max":1130,"o":"m 255 995 l 267 995 l 243 685 l 243 660 l 249 660 q 311 914 269 840 q 317 889 317 903 l 323 889 q 348 939 323 930 q 354 932 348 932 q 292 524 336 753 q 298 498 298 513 q 280 449 280 494 l 280 424 l 286 424 q 391 585 286 445 l 397 585 q 367 524 367 537 q 534 790 505 705 l 534 821 q 553 908 534 885 l 553 976 l 565 976 l 565 914 l 572 883 l 578 883 l 578 945 l 590 945 l 590 926 q 621 896 590 896 q 633 908 623 908 q 677 840 657 906 q 720 772 712 840 q 714 597 714 621 l 708 597 q 714 591 708 591 q 683 455 696 473 l 683 406 q 696 393 685 393 q 813 629 813 616 l 826 629 l 813 585 l 813 579 l 819 579 q 987 889 907 817 l 994 889 l 994 877 l 1043 964 l 1067 983 q 1080 964 1080 983 l 1074 939 q 1080 914 1080 928 q 1124 945 1086 914 l 1130 945 q 1099 896 1108 896 q 1130 815 1130 846 q 987 610 1130 800 q 789 262 987 576 l 776 262 l 776 269 l 783 281 l 783 288 l 776 288 q 758 232 758 239 q 770 219 770 230 q 689 39 728 99 q 627 27 684 39 q 547 108 547 41 q 534 120 534 108 q 541 139 534 139 l 534 170 l 534 176 l 565 288 q 559 307 559 300 l 553 307 q 547 244 553 266 l 534 244 l 547 362 l 522 380 q 534 443 534 433 q 515 399 522 443 l 503 399 l 528 517 q 367 313 401 335 l 243 151 l 243 157 l 249 170 l 249 176 l 243 176 q 119 -10 199 60 l 56 -10 q 1 15 9 -10 q 50 269 1 66 l 62 269 l 56 238 l 56 226 l 62 226 q 113 536 113 468 l 125 536 l 125 524 l 131 524 l 131 561 l 119 579 l 131 585 q 137 579 131 579 l 193 883 l 205 883 l 205 827 l 212 827 q 224 932 224 926 l 237 932 l 237 908 l 243 908 q 255 989 255 964 l 255 995 m 342 970 l 354 970 l 354 951 l 342 951 l 342 970 m 1030 815 q 1024 796 1030 808 l 1024 790 l 1030 790 q 1037 808 1030 797 l 1037 815 l 1030 815 m 943 691 q 987 772 956 691 q 943 691 958 751 m 919 715 q 888 654 919 700 l 888 648 q 925 709 907 661 l 925 715 l 919 715 m 94 455 l 100 455 l 100 449 q 87 437 100 437 l 81 437 l 81 443 q 94 455 83 455 m 795 313 l 795 307 q 807 319 807 307 l 807 325 q 795 313 795 323 m 56 307 l 69 307 l 69 288 l 56 288 l 56 307 z "},"X":{"ha":688,"x_min":-12,"x_max":732,"o":"m 119 989 q 194 882 149 935 l 194 889 q 182 926 182 909 q 351 645 220 889 q 388 713 351 654 q 500 870 421 713 l 513 870 l 513 857 l 519 857 q 563 920 519 875 q 575 907 565 907 q 600 939 575 926 l 606 926 q 575 882 599 926 l 575 876 q 631 932 580 876 l 694 876 q 726 920 710 916 l 732 907 l 732 901 q 663 789 717 886 l 675 789 q 701 826 677 812 l 707 826 l 707 820 q 425 458 625 675 q 575 126 447 386 q 588 89 588 106 l 582 89 q 650 -68 650 -41 l 650 -80 l 638 -80 l 544 89 q 500 151 517 89 l 488 151 q 569 -30 569 -14 l 550 -30 q 481 45 550 -9 q 413 132 481 60 q 300 332 305 332 q 138 126 275 277 q 69 52 95 102 q -12 -18 10 -18 l -12 -12 q 100 145 29 70 l 94 157 l 132 214 l 132 220 q 0 76 7 77 l -6 89 l 25 145 q 19 163 19 157 q 100 314 29 163 l 225 470 q 144 602 189 538 q 151 626 151 612 l 50 770 l 63 777 q 69 770 63 770 l 69 777 l 38 826 l 38 845 l 50 839 l 32 870 q 44 882 33 882 q 63 857 54 857 l 75 857 q 50 907 50 895 q 94 926 73 926 q 113 920 106 920 l 125 939 l 106 970 l 106 977 q 119 989 109 989 z "},"Y":{"ha":694,"x_min":9,"x_max":709,"o":"m 98 998 q 174 890 127 943 l 174 897 q 161 935 161 918 q 356 576 254 819 l 356 563 l 362 563 q 513 752 372 563 q 570 808 524 752 q 633 878 591 808 q 709 941 686 941 l 709 935 q 595 777 667 853 l 602 764 l 564 708 l 564 701 q 696 846 688 846 l 703 833 l 671 777 q 677 758 677 765 q 595 607 667 758 q 444 406 444 422 l 425 304 l 413 304 l 419 317 l 413 380 l 406 380 q 356 84 406 245 l 343 84 q 350 134 343 110 l 350 147 l 343 147 q 318 71 332 71 l 312 71 l 318 96 l 318 109 l 312 109 q 281 -17 312 76 q 268 -42 281 -42 q 262 -36 268 -36 q 249 -86 262 -46 l 230 -86 q 218 -67 218 -86 q 249 128 249 94 l 249 153 l 243 153 q 218 2 243 115 l 205 2 l 205 8 q 211 71 205 16 l 205 84 q 255 399 255 346 q 205 469 255 427 q 123 607 205 486 q 130 632 130 618 l 28 777 l 41 783 q 47 777 41 777 l 47 783 l 16 833 l 16 852 l 28 846 l 9 878 q 22 890 12 890 q 41 865 32 865 l 54 865 q 28 916 28 903 q 73 935 52 935 q 92 928 85 928 l 104 947 l 85 979 l 85 985 q 98 998 87 998 m 325 260 l 325 235 l 331 235 l 331 260 l 325 260 m 255 216 l 255 191 l 262 191 l 262 216 l 255 216 m 356 203 l 356 178 l 362 178 l 362 203 l 356 203 z "},"Z":{"ha":716,"x_min":-205,"x_max":888,"o":"m 616 964 l 673 964 q 717 939 707 964 q 711 932 717 932 l 724 907 q 717 901 717 907 q 736 888 736 901 q 724 876 724 886 l 736 876 l 736 863 l 724 863 l 724 857 q 749 844 749 857 q 692 825 692 837 q 730 800 715 825 q 667 781 697 781 l 629 781 q 401 496 526 631 q 149 199 222 313 l 149 193 l 205 193 q 218 206 218 193 l 231 199 l 256 199 l 275 212 l 332 187 q 642 174 534 174 q 686 180 661 174 q 888 149 714 180 l 888 136 l 863 136 q 837 143 848 136 q 819 136 825 136 q 812 143 812 136 q 793 136 805 143 q 642 149 775 136 l 629 149 l 629 143 q 692 124 692 143 l 686 111 l 736 111 l 736 98 l 793 98 l 793 86 q 572 41 605 73 q 420 29 462 29 l 345 35 l 313 29 q 243 41 259 41 q 193 29 193 37 l 149 35 l 98 35 q 66 16 66 35 l 9 16 l -22 23 q -79 -28 -45 -28 l -79 -22 q -35 67 -35 42 q -41 73 -41 67 q -35 79 -35 73 l -47 79 l -66 67 l -73 79 l -47 124 q -66 136 -66 124 q -54 149 -54 136 q -60 155 -60 149 q -35 162 -49 162 l -47 180 q 16 282 -16 180 l 231 553 q 332 718 231 572 q 389 781 357 718 q 351 793 365 781 q 41 806 148 806 q -3 800 22 806 q -205 831 -32 800 l -205 844 l -180 844 q -155 838 -166 844 q -136 844 -142 844 q -130 838 -130 844 q -111 844 -123 838 q 41 831 -93 844 l 54 831 l 54 838 q -9 857 -9 838 l -3 869 l -54 869 l -54 882 l -111 882 l -111 895 q 111 939 77 907 q 262 951 220 951 l 338 945 l 370 951 q 439 939 423 939 q 490 951 490 943 l 534 945 l 585 945 q 616 964 616 945 m 98 86 l 98 79 l 136 79 l 136 86 l 98 86 z "},"[":{"ha":468,"x_min":0,"x_max":569,"o":"m 258 989 q 271 976 260 976 l 291 976 l 304 982 q 323 969 304 969 q 530 976 497 976 q 562 950 559 963 q 511 924 527 924 l 511 918 q 569 905 569 918 q 536 899 558 899 l 536 892 l 549 892 l 549 879 l 530 879 l 536 866 q 504 827 504 846 l 491 827 l 491 821 l 504 821 l 504 808 q 439 789 463 789 l 388 789 q 375 808 388 808 l 291 808 q 252 614 278 808 q 168 181 252 610 l 245 181 q 278 200 278 181 l 336 200 q 381 174 371 200 q 375 168 381 168 l 388 142 q 381 136 381 142 q 401 123 401 136 q 388 110 388 121 l 401 110 l 401 97 l 388 97 l 388 90 q 414 77 414 90 q 355 58 355 70 q 394 33 379 58 q 336 13 359 13 q 130 20 184 20 l 123 7 l 110 13 l 84 13 l 64 0 l 7 26 l 13 58 l 13 97 q 0 168 13 143 q 33 439 7 259 l 20 446 q 161 892 117 853 q 258 989 176 989 m 323 866 l 323 859 l 349 853 l 375 853 l 375 859 q 330 866 338 859 l 323 866 m 207 136 l 207 130 l 245 130 l 245 136 l 207 136 z "},"\\":{"ha":664,"x_min":91,"x_max":635,"o":"m 94 980 l 109 979 q 131 927 105 972 l 136 923 l 117 1004 l 202 1029 q 180 1082 175 1066 l 195 1080 l 200 1077 q 263 954 205 1056 l 270 965 q 250 1008 250 979 l 254 1013 l 259 1010 q 474 393 336 899 q 566 129 534 243 l 572 64 q 615 -93 635 -60 l 609 -90 q 531 97 559 -8 l 516 98 l 486 163 l 481 166 q 538 -31 541 -25 l 523 -29 l 490 30 q 469 34 475 31 q 382 180 465 66 l 268 496 q 177 675 251 507 q 119 819 194 703 q 104 859 101 852 l 108 864 l 119 857 l 123 863 q 91 936 107 872 q 109 941 103 931 q 94 980 92 951 z "},"]":{"ha":545,"x_min":0,"x_max":569,"o":"m 310 0 q 297 13 308 13 l 278 13 l 265 7 q 245 20 265 20 q 39 13 72 13 q 7 39 9 26 q 58 64 41 64 l 58 71 q 0 84 0 71 q 33 90 11 90 l 33 97 l 20 97 l 20 110 l 39 110 l 33 123 q 64 161 64 143 l 77 161 l 77 168 l 64 168 l 64 181 q 130 200 106 200 l 181 200 q 194 181 181 181 l 278 181 q 317 375 291 181 q 401 808 317 379 l 323 808 q 291 789 291 808 l 233 789 q 187 814 198 789 q 194 821 187 821 l 181 846 q 187 853 187 846 q 168 866 168 853 q 181 879 181 868 l 168 879 l 168 892 l 181 892 l 181 899 q 155 911 155 899 q 213 930 213 919 q 174 956 189 930 q 233 976 210 976 q 439 969 385 969 l 446 982 l 459 976 l 485 976 l 504 989 l 562 963 l 556 930 l 556 892 q 569 821 556 846 q 536 549 562 730 l 549 543 q 407 97 452 136 q 310 0 393 0 m 245 123 l 245 130 l 220 136 l 194 136 l 194 130 q 239 123 231 130 l 245 123 m 362 853 l 362 859 l 323 859 l 323 853 l 362 853 z "},"^":{"ha":581,"x_min":-15,"x_max":608,"o":"m 304 840 q 123 519 129 529 q 125 505 130 513 q 98 500 104 497 l 98 481 q 63 489 73 483 q 28 554 54 494 l 18 553 q 0 596 13 557 q -9 614 -15 605 l -6 619 q 204 917 161 926 q 193 956 189 950 q 260 982 246 991 q 287 954 281 957 q 317 956 293 964 l 315 945 q 335 945 327 947 q 345 955 338 949 l 354 946 q 372 967 361 962 l 400 937 q 397 923 393 932 q 418 908 406 927 q 592 545 587 556 q 604 538 600 547 q 593 515 599 517 l 608 503 q 583 478 593 484 q 509 487 573 474 l 504 478 q 458 488 498 476 q 438 491 443 481 l 435 496 q 313 840 281 809 q 304 840 309 840 z "},"_":{"ha":551,"x_min":0,"x_max":532,"o":"m 487 167 q 504 147 504 154 l 521 155 q 532 123 532 135 q 493 64 532 114 l 498 57 q 470 22 498 51 q 459 5 470 5 l 453 5 q 90 39 104 -1 q 62 11 68 11 q 5 54 5 39 q 17 90 17 83 q 0 113 5 90 l 12 117 q 0 140 0 130 l 39 153 q 51 144 41 144 q 73 156 51 155 q 476 159 464 159 q 487 167 477 167 z "},"`":{"ha":290,"x_min":-12,"x_max":269,"o":"m -2 922 l 10 923 l 22 907 l 27 905 l 22 937 l 93 964 q 86 979 83 970 l 99 981 q 130 950 116 956 l 129 963 q 136 966 134 961 q 218 752 186 923 q 248 673 228 749 l 246 669 l 237 660 q 258 603 269 631 l 245 602 q 207 659 239 604 q 184 680 193 665 l 182 675 q 201 613 195 642 l 199 608 l 189 612 q 169 625 176 616 l 157 624 q 77 734 94 666 l 71 766 l 59 765 q 24 833 26 795 q -8 876 -12 867 l 1 884 q -2 922 -7 888 z "},"a":{"ha":621,"x_min":-21,"x_max":599,"o":"m 503 974 q 580 922 580 948 q 599 877 580 905 q 593 858 599 858 l 599 825 l 599 819 q 567 664 567 713 l 567 651 l 573 651 l 586 748 l 599 748 q 586 560 586 661 l 586 554 l 599 554 l 599 147 q 580 56 599 80 l 580 -14 l 567 -14 l 567 50 l 560 82 l 554 82 l 554 18 l 541 18 l 541 37 q 509 69 541 69 q 496 56 509 56 q 450 173 450 72 l 437 166 q 412 244 437 244 l 237 244 q 127 76 181 121 l 121 76 l 121 89 l 69 -1 l 43 -21 q 31 -1 31 -21 q 43 37 31 9 l 43 43 l 37 43 l 37 31 l 31 31 l 31 50 q -14 18 24 50 l -21 18 l -21 24 q 12 69 3 69 q -1 109 -1 91 q 89 340 18 144 q 121 393 114 393 q 127 386 121 386 l 334 728 l 347 728 l 347 722 l 340 709 l 340 703 l 347 703 q 367 761 367 753 q 354 774 354 761 q 437 961 397 899 q 503 974 496 974 m 315 670 l 315 664 q 328 677 328 664 l 328 683 q 315 670 315 681 m 431 593 l 347 425 l 360 425 q 373 444 360 444 q 399 425 399 441 l 418 425 q 431 463 418 449 l 431 515 l 444 515 l 444 431 l 450 431 l 450 483 q 431 593 446 593 m 121 425 l 134 425 l 134 418 q 127 399 127 406 l 115 399 l 115 406 q 121 425 121 418 m 354 399 l 354 393 l 412 393 l 412 399 l 354 399 m 127 199 q 173 283 157 220 q 127 199 160 283 m 82 179 q 76 160 82 172 l 76 153 l 82 153 q 89 173 82 160 l 89 179 l 82 179 z "},"b":{"ha":575,"x_min":-9,"x_max":581,"o":"m 289 998 q 417 875 289 978 q 522 776 417 866 l 551 734 l 551 729 l 540 729 q 581 623 581 664 l 581 594 q 423 425 502 450 l 464 372 l 464 366 l 452 366 q 493 261 493 302 l 493 232 q 149 16 385 16 q 131 33 149 20 l 119 27 l 107 27 l 78 33 q 37 -90 78 -31 l 31 -90 q 55 56 43 5 l 31 56 q 8 4 20 4 l 2 4 l 2 62 q -9 74 2 74 l -3 86 l -3 168 q 66 513 -3 256 q 26 553 66 523 l 26 559 l 66 559 q 90 705 84 705 q 119 875 106 705 l 125 875 l 136 869 l 136 892 l 113 916 l 113 922 q 154 928 131 922 q 160 922 154 922 l 166 962 l 178 962 q 189 928 178 928 q 207 975 189 970 l 224 975 q 248 951 233 975 q 283 998 283 960 l 289 998 m 289 957 q 359 886 289 937 l 359 892 q 294 957 353 892 l 289 957 m 289 764 q 265 647 265 667 l 271 618 q 254 600 262 618 l 271 600 l 271 594 l 254 571 q 318 524 290 553 q 406 571 366 562 l 429 600 l 429 618 q 388 670 404 646 l 388 676 q 417 653 414 653 q 289 764 380 709 m 557 635 l 557 629 q 564 606 564 619 l 569 606 l 569 618 q 564 635 564 629 l 557 635 m 242 547 q 271 524 244 536 l 271 530 l 248 547 l 242 547 m 160 319 l 160 308 q 183 255 183 281 q 166 238 175 255 l 183 238 l 183 232 q 136 144 166 212 l 149 150 l 160 150 q 166 144 166 150 q 283 197 229 155 q 341 238 311 197 l 341 255 q 300 308 317 283 l 300 314 l 330 290 q 218 390 311 329 l 189 390 q 160 319 176 390 m 470 273 l 470 267 q 475 243 475 257 l 481 243 l 481 255 q 475 273 475 267 l 470 273 z "},"c":{"ha":587,"x_min":-18,"x_max":671,"o":"m 406 989 l 433 982 l 479 989 q 605 883 503 989 q 625 909 625 883 q 638 896 638 907 l 618 863 l 631 863 q 644 883 631 883 l 671 883 q 605 843 654 843 q 598 836 605 836 q 591 843 598 843 q 572 817 582 817 q 565 823 565 817 q 526 810 543 810 l 479 823 l 412 823 q 207 618 338 823 l 214 604 q 201 591 214 591 q 194 597 201 597 l 201 564 q 168 465 189 545 q 174 339 174 393 l 174 319 l 180 286 q 161 246 170 286 q 220 153 184 189 l 233 160 q 313 134 237 160 l 320 134 q 410 167 364 134 q 522 379 435 182 l 535 379 l 535 372 l 515 326 l 515 319 l 522 319 q 542 359 529 359 l 549 359 q 535 227 535 245 l 555 227 q 529 153 529 170 l 515 147 l 522 114 l 522 107 q 307 1 421 1 q 247 -12 307 -8 q -18 353 25 -12 q 28 564 -1 564 q 87 757 51 719 q 247 943 87 795 l 260 943 l 260 936 l 220 883 l 227 883 q 412 962 318 962 l 399 982 q 406 989 406 982 m 605 929 l 625 929 l 625 909 l 618 909 q 605 922 605 909 l 605 929 m 141 916 l 147 916 q 161 903 161 913 l 161 896 q 127 876 161 884 l 121 889 l 121 896 q 141 916 121 905 m 174 246 l 194 246 q 220 186 194 224 q 207 174 220 174 q 174 246 174 230 z "},"d":{"ha":600,"x_min":0,"x_max":581,"o":"m 211 977 l 223 970 l 236 977 q 562 760 357 943 q 581 696 581 718 l 574 683 l 581 670 l 574 657 l 581 645 l 543 479 l 549 466 q 485 191 502 202 l 402 127 q 396 134 396 127 l 166 0 q 0 217 94 0 l 6 217 q 38 191 35 191 q 58 198 51 198 q 90 134 90 150 l 96 134 l 96 153 l 83 172 l 83 185 q 134 127 92 185 q 140 134 140 127 l 172 127 q 262 198 204 127 l 275 204 l 268 217 q 351 300 268 224 l 408 651 q 275 772 408 696 q 236 562 236 580 l 223 562 l 223 587 l 217 587 q 140 281 217 416 l 127 288 l 121 262 l 109 262 l 109 268 q 121 383 109 319 l 121 402 l 115 402 q 90 313 111 313 q 83 319 90 319 l 77 288 l 64 288 q 51 313 64 302 q 58 383 51 326 l 58 396 l 51 396 q 45 345 45 350 l 32 345 q 83 587 32 392 q 77 600 83 600 q 71 606 71 600 q 96 747 90 727 q 90 753 96 753 q 102 862 102 836 l 115 862 q 198 977 115 977 l 211 977 m 64 587 l 77 587 l 77 562 l 64 562 l 64 587 m 58 549 l 71 549 l 71 530 l 58 530 l 58 549 z "},"e":{"ha":559,"x_min":0,"x_max":623,"o":"m 288 977 q 341 970 304 977 q 426 977 384 977 q 616 924 616 956 l 610 911 l 623 911 l 623 905 l 570 905 q 498 911 543 905 l 492 911 l 492 905 q 564 891 517 905 l 564 885 l 557 871 q 564 865 564 871 l 517 839 l 426 839 l 426 832 l 452 832 l 452 819 l 282 819 l 249 812 l 249 819 q 210 780 210 819 l 210 773 l 216 773 q 439 780 302 773 q 465 773 450 773 q 426 753 465 760 l 426 747 l 433 747 q 472 760 459 760 l 472 747 l 452 747 l 452 734 l 459 734 l 485 747 q 524 734 507 734 q 531 741 524 741 q 551 694 537 715 q 374 517 531 640 l 367 517 l 393 551 l 387 551 q 223 380 223 404 q 190 275 190 345 l 190 249 l 197 249 q 275 302 258 302 l 275 295 l 361 347 l 387 341 l 420 361 l 426 347 l 420 347 q 426 328 426 334 l 433 328 l 479 361 l 485 347 q 393 262 394 269 l 400 262 q 511 354 492 354 l 517 341 q 118 0 223 33 q 26 39 31 28 q 0 125 7 125 q 66 446 1 241 q 85 479 85 446 l 98 479 l 92 446 l 92 426 l 98 426 q 190 557 98 501 q 236 596 190 563 l 249 596 l 216 557 l 223 557 q 315 635 283 635 l 315 642 l 308 642 q 59 590 238 590 q 26 649 26 641 q 66 780 33 743 q 92 826 66 826 l 92 839 q 52 905 52 884 l 52 924 q 288 977 52 962 m 420 918 l 420 911 l 479 911 l 479 918 l 420 918 m 347 505 l 347 498 q 328 479 347 489 l 321 479 q 347 505 321 489 z "},"f":{"ha":505,"x_min":-31,"x_max":562,"o":"m 250 975 q 299 968 266 975 q 378 975 340 975 q 556 926 556 956 l 550 913 l 562 913 l 562 907 l 513 907 q 446 913 488 907 l 439 913 l 439 907 q 507 895 464 907 l 507 889 l 500 877 q 507 871 507 877 l 464 846 l 378 846 l 378 840 l 403 840 l 403 828 l 244 828 l 214 822 l 214 828 q 177 791 177 828 l 177 785 l 183 785 q 391 791 263 785 q 415 785 401 785 q 378 767 415 773 l 378 761 l 385 761 q 421 773 410 773 l 421 761 l 403 761 l 403 749 l 409 749 l 433 761 q 470 749 454 749 q 476 755 470 755 q 494 712 482 730 q 330 547 477 661 l 323 547 l 348 578 l 342 578 q 189 418 189 441 q 110 138 151 366 q 85 64 101 138 q 37 -94 72 64 l 18 -113 l 12 -113 q 49 83 26 10 l 37 89 q 49 156 37 97 l 49 162 l 43 162 q -12 -15 9 7 l -18 -15 l -18 46 q -31 58 -18 58 l -18 113 q -24 168 -24 146 q 61 511 -1 391 l 73 511 l 67 480 l 67 462 l 73 462 q 159 584 73 532 q 201 621 159 589 l 214 621 l 183 584 l 189 584 q 275 657 246 657 l 275 663 l 269 663 q 37 614 204 614 q 6 669 6 662 q 43 791 12 757 q 67 834 43 834 l 67 846 q 31 907 31 888 l 31 926 q 250 975 31 960 m 372 920 l 372 913 l 427 913 l 427 920 l 372 920 m 305 535 l 305 529 q 287 511 305 520 l 281 511 q 305 535 281 520 z "},"g":{"ha":694,"x_min":0,"x_max":682,"o":"m 397 974 l 422 968 l 465 974 q 583 875 488 974 q 602 899 602 875 q 614 887 614 897 l 595 856 l 608 856 q 621 875 608 875 l 645 875 q 583 838 630 838 q 577 831 583 831 q 570 838 577 838 q 552 812 562 812 q 546 819 546 812 q 509 806 526 806 l 465 819 l 404 819 q 211 627 334 819 l 217 614 q 205 602 217 602 q 199 608 205 608 l 205 577 q 174 484 195 558 q 180 366 180 416 l 180 347 l 186 316 q 168 279 176 316 q 223 193 190 226 l 236 199 q 310 174 239 199 l 316 174 q 453 273 412 205 q 496 298 496 273 l 515 479 l 440 479 q 410 460 410 479 l 353 460 q 310 486 320 460 q 316 492 310 492 l 304 517 q 310 523 310 517 q 292 535 292 523 q 304 548 304 535 l 292 548 l 292 560 l 304 560 l 304 566 q 279 578 279 566 q 335 597 335 586 q 298 622 312 597 q 353 641 332 641 q 552 635 500 635 l 558 647 l 570 641 l 595 641 l 614 653 q 664 610 664 644 l 682 479 q 645 112 666 479 q 621 75 629 75 l 614 75 l 614 118 l 608 118 q 589 0 608 0 l 570 0 q 540 31 540 14 l 527 25 l 509 25 q 453 56 453 37 q 459 112 459 90 l 453 112 q 254 37 384 56 l 248 37 q 0 378 40 37 q 43 577 16 577 q 99 757 64 722 q 248 930 99 793 l 260 930 l 260 924 l 223 875 l 229 875 q 404 949 315 949 l 391 968 q 397 974 397 968 m 583 918 l 602 918 l 602 899 l 595 899 q 583 912 583 899 l 583 918 m 149 905 l 155 905 q 168 893 168 904 l 168 887 q 136 869 168 876 l 130 881 l 130 887 q 149 905 130 896 m 440 529 l 440 523 l 477 523 l 477 529 l 440 529 m 180 279 l 199 279 q 223 223 199 259 q 211 211 223 211 q 180 279 180 264 z "},"h":{"ha":680,"x_min":-28,"x_max":703,"o":"m 656 1096 l 662 1096 q 626 906 648 977 l 638 900 q 626 834 638 892 l 626 829 l 632 829 q 686 1001 665 979 l 691 1001 l 691 941 q 703 930 693 930 l 691 876 q 697 823 697 844 q 626 496 697 736 q 638 425 638 454 q 632 418 638 418 l 638 406 q 614 347 638 380 q 608 288 608 316 q 572 115 583 288 l 566 115 l 555 121 l 549 62 l 537 62 l 537 74 l 531 74 q 525 26 525 31 l 513 26 l 513 62 l 501 62 q 484 14 501 18 l 465 14 l 436 38 l 412 38 l 412 3 q 400 -9 412 -9 q 394 8 394 2 l 400 50 q 394 56 400 56 l 400 85 l 400 115 l 394 115 l 394 79 l 382 79 q 430 365 382 153 l 424 365 q 252 389 402 365 l 252 401 l 275 401 l 275 406 l 210 406 l 198 412 q 133 151 162 327 q 103 62 119 133 q 56 -93 90 62 q 37 -111 41 -111 l 32 -111 q 67 79 45 9 l 56 85 q 67 151 56 94 l 67 157 l 61 157 q 8 -16 28 6 l 2 -16 l 2 44 q -10 56 2 56 l 2 109 q -4 163 -4 142 q 50 436 -4 226 l 43 436 q -16 460 -3 451 l -10 472 l -10 478 l -28 478 l -28 490 l 50 490 l 61 484 l 61 496 l 32 496 q 14 513 23 496 q 20 519 20 513 l -10 519 l -10 531 l 8 531 l 8 537 l -4 537 l -4 549 l 67 543 q 43 555 67 555 l 43 567 l 67 567 q 91 698 87 696 q 121 870 107 698 l 127 870 l 138 864 l 144 924 l 157 924 l 157 911 l 162 911 q 168 959 162 917 l 180 959 l 180 924 l 192 924 q 210 971 192 967 l 228 971 q 258 947 254 947 l 269 947 q 287 995 281 947 l 293 995 q 299 977 299 983 l 293 935 q 299 930 293 930 l 293 900 l 293 870 l 299 870 l 299 906 l 311 906 q 239 549 311 793 l 245 549 q 424 526 400 531 q 448 531 434 531 l 448 526 q 507 603 496 526 q 561 834 531 673 q 590 930 576 852 q 632 1060 608 930 q 656 1096 648 1096 m 234 537 l 234 531 l 275 531 l 275 537 l 234 537 z "},"i":{"ha":222,"x_min":-22,"x_max":284,"o":"m 267 983 q 273 966 273 972 l 267 926 q 273 920 267 920 l 267 892 l 267 864 l 273 864 l 273 898 l 284 898 q 142 320 284 753 q 92 117 120 195 q 63 26 63 59 q 24 -71 36 -71 l 18 -71 q 52 111 31 43 l 41 117 q 52 178 41 124 l 52 184 l 46 184 q -5 20 14 41 l -10 20 l -10 77 q -22 88 -10 88 l -10 139 q -16 190 -16 170 q 52 507 -16 267 l 46 530 q 75 700 71 694 q 103 864 90 700 l 109 864 l 120 858 l 125 915 l 137 915 l 137 903 l 142 903 q 148 949 148 944 l 159 949 l 159 915 l 171 915 q 188 960 171 956 l 205 960 q 233 937 230 937 l 244 937 q 261 983 256 937 l 267 983 z "},"j":{"ha":498,"x_min":-175,"x_max":573,"o":"m 549 1063 q 567 1045 558 1063 q 519 848 519 878 l 519 842 l 526 842 q 562 973 542 924 l 573 973 q 418 363 573 891 l 424 363 q 435 351 435 361 q 376 243 376 315 q 316 147 365 243 q 208 45 309 146 l 196 45 l 196 52 l 232 99 l 226 99 q 58 27 144 27 l 71 9 q 64 3 64 9 l 41 9 l -1 3 q -115 99 -24 3 q -133 75 -133 99 q -145 87 -145 75 l -127 117 l -139 117 q -151 99 -139 99 l -175 99 q -115 135 -160 135 q -109 141 -115 141 q -103 135 -109 135 q -85 159 -94 159 q -79 153 -79 159 q -43 165 -60 165 l -1 153 l 58 153 q 244 338 124 153 l 238 351 q 250 363 240 363 q 256 357 250 357 l 250 387 l 280 470 q 346 710 334 710 l 352 710 l 346 698 l 346 650 l 340 614 l 340 608 l 346 608 q 424 907 346 708 l 435 907 l 435 895 q 424 859 435 879 l 424 848 l 429 848 q 460 919 446 919 l 465 919 l 460 895 l 460 883 l 465 883 q 549 1063 465 952 m 501 793 q 496 770 501 780 l 496 764 l 501 764 q 507 781 501 770 l 507 793 l 501 793 m 429 751 l 424 715 l 424 698 l 429 698 q 435 740 429 716 l 435 751 l 429 751 m 316 105 l 322 93 l 322 87 q 304 69 322 79 l 298 69 q 286 81 286 69 l 286 87 q 316 105 286 98 m -133 75 l -127 75 q -115 63 -115 73 l -115 57 l -133 57 l -133 75 z "},"k":{"ha":559,"x_min":-18,"x_max":619,"o":"m 277 995 q 283 977 283 983 l 277 937 q 283 931 277 931 l 277 902 l 277 873 l 283 873 l 283 908 l 294 908 q 260 688 294 838 q 312 751 306 751 q 410 890 332 762 l 416 890 l 416 879 l 422 879 q 463 937 422 895 q 474 925 465 925 q 497 954 474 943 l 503 943 q 474 902 496 943 l 474 897 q 526 949 478 897 l 584 897 q 613 937 600 934 l 619 925 l 619 920 q 555 815 606 906 l 567 815 q 590 850 569 837 l 596 850 l 596 844 q 335 508 520 710 q 474 201 355 442 q 486 166 486 182 l 480 166 q 544 22 544 47 l 544 10 l 532 10 l 445 166 q 405 224 420 166 l 393 224 q 469 56 469 71 l 451 56 q 387 126 451 75 q 323 207 387 140 q 219 393 224 393 q 132 230 132 272 q 75 50 103 114 q 28 -83 45 -83 l 22 -83 q 57 102 35 34 l 45 109 q 57 172 45 116 l 57 178 l 52 178 q -1 10 19 31 l -7 10 l -7 68 q -18 79 -7 79 l -7 132 q -12 184 -12 163 q 57 508 -12 262 l 52 532 q 80 705 76 701 q 109 873 96 705 l 115 873 l 127 867 l 132 925 l 144 925 l 144 913 l 150 913 q 155 960 155 955 l 167 960 l 167 925 l 178 925 q 196 972 178 968 l 214 972 q 242 949 239 949 l 254 949 q 271 995 266 949 l 277 995 z "},"l":{"ha":443,"x_min":3,"x_max":431,"o":"m 244 1000 l 264 1000 q 277 981 277 1000 q 244 773 244 810 l 244 747 l 251 747 q 277 907 251 787 l 291 907 l 291 901 q 284 833 284 842 l 291 820 q 177 212 218 397 l 258 212 q 291 232 291 212 l 351 232 q 398 205 387 232 q 391 198 398 198 l 405 172 q 398 165 398 172 q 418 151 418 165 q 405 138 405 149 l 418 138 l 418 125 l 405 125 l 405 118 q 431 104 431 118 q 371 85 371 96 q 411 58 396 85 q 351 38 375 38 q 137 45 193 45 l 130 31 l 117 38 l 90 38 l 71 24 l 10 51 l 17 85 l 17 125 q 3 198 17 172 q 57 586 24 412 l 71 586 l 64 572 q 71 492 71 526 l 77 492 q 130 820 77 654 l 144 820 q 137 766 144 793 l 137 753 l 144 753 q 170 833 155 833 l 177 833 l 170 807 l 170 793 l 177 793 q 211 927 177 829 q 224 954 211 954 q 231 947 224 947 q 244 1000 231 958 m 123 720 l 123 693 l 130 693 l 130 720 l 123 720 m 231 707 l 231 680 l 237 680 l 237 707 l 231 707 m 157 660 l 157 633 l 164 633 l 164 660 l 157 660 m 151 626 l 151 586 l 157 586 l 157 626 l 151 626 m 218 165 l 218 158 l 258 158 l 258 165 l 218 165 z "},"m":{"ha":1044,"x_min":0,"x_max":1130,"o":"m 1012 1006 l 1074 1006 q 1130 981 1122 1006 q 1080 726 1130 930 l 1067 726 l 1074 758 l 1074 770 l 1067 770 q 1018 459 1018 527 l 1006 459 l 1006 472 l 1000 472 l 1000 435 l 1012 416 l 1006 416 l 994 422 l 937 112 l 925 112 l 925 168 l 919 168 q 906 62 906 68 l 894 62 l 894 87 l 888 87 q 876 25 876 37 l 876 0 l 863 0 l 888 311 l 888 335 l 882 335 q 819 81 862 155 q 813 106 813 92 l 807 106 q 782 56 807 64 q 776 62 782 62 q 838 472 795 242 q 832 496 832 483 q 850 547 850 500 l 850 571 l 844 571 q 739 410 844 551 l 732 410 q 764 472 764 458 q 596 205 625 290 l 596 174 q 577 87 596 110 l 577 18 l 565 18 l 565 81 l 559 112 l 553 112 l 553 50 l 540 50 l 540 68 q 509 99 540 99 q 496 87 509 87 q 453 155 473 89 q 410 224 418 155 q 416 397 410 246 l 422 397 q 416 404 422 404 q 447 540 435 522 l 447 590 q 435 602 447 602 q 317 366 317 379 l 304 366 l 317 410 l 317 416 l 311 416 q 143 106 223 178 l 136 106 l 136 118 l 81 25 l 62 12 q 50 31 50 12 q 62 68 50 42 l 62 75 l 56 75 l 56 62 l 50 62 l 50 81 q 6 50 43 81 l 0 50 l 0 56 q 31 99 24 99 q 0 168 0 151 q 118 397 0 189 q 130 429 130 418 l 143 429 l 143 422 q 136 404 136 410 q 341 732 341 722 l 354 732 l 354 726 l 348 714 l 348 708 l 354 708 q 372 764 372 757 q 360 776 360 764 q 441 956 401 896 q 503 968 497 968 q 583 888 583 955 q 596 876 596 886 q 590 857 596 857 l 596 825 l 596 819 l 565 708 q 571 689 571 696 l 577 689 q 583 751 577 730 l 596 751 l 583 633 l 608 614 q 596 553 596 562 q 614 596 608 553 l 627 596 l 602 478 q 764 683 729 661 l 888 844 l 888 838 l 882 825 l 882 819 l 888 819 q 1012 1006 931 935 m 1061 708 l 1074 708 l 1074 689 l 1061 689 l 1061 708 m 323 677 l 323 671 q 335 683 335 671 l 335 689 q 323 677 323 687 m 1043 559 l 1049 559 l 1049 553 q 1037 540 1049 540 l 1031 540 l 1031 547 q 1043 559 1032 559 m 205 286 l 205 279 l 211 279 q 242 341 211 295 l 242 348 q 205 286 222 334 m 143 224 q 186 304 172 244 q 143 224 174 304 m 99 205 q 93 186 99 198 l 93 180 l 99 180 q 106 199 99 186 l 106 205 l 99 205 m 776 43 l 789 43 l 789 25 l 776 25 l 776 43 z "},"n":{"ha":716,"x_min":-9,"x_max":728,"o":"m 252 1109 l 264 1109 l 239 791 l 239 765 l 245 765 q 309 1026 265 950 q 315 1000 315 1015 l 321 1000 q 347 1052 321 1043 q 353 1045 347 1045 q 290 625 334 861 q 296 600 296 614 q 277 549 277 596 l 277 524 l 283 524 q 391 689 283 545 l 397 689 q 366 625 366 640 q 532 892 524 832 q 640 962 569 962 l 646 949 q 633 918 633 929 q 659 956 644 918 q 728 880 725 956 l 728 816 l 671 447 q 608 218 633 372 q 563 21 597 218 q 532 -50 542 -39 l 519 -56 l 500 -56 q 455 40 461 -40 l 449 40 l 455 72 l 455 91 l 442 91 q 544 562 442 229 q 551 600 544 566 l 551 606 l 544 606 l 519 492 l 506 492 q 532 619 506 507 q 366 409 401 432 l 239 243 l 239 250 l 245 262 l 245 269 l 239 269 q 111 78 194 151 l 47 78 q -9 104 -1 78 q 41 364 -9 156 l 54 364 l 47 332 l 47 320 l 54 320 q 105 638 105 568 l 118 638 l 118 625 l 124 625 l 124 663 l 111 682 l 124 689 q 130 682 124 682 l 188 994 l 201 994 l 201 937 l 207 937 q 220 1045 207 944 l 233 1045 l 233 1020 l 239 1020 q 252 1103 252 1077 l 252 1109 m 340 1083 l 353 1083 l 353 1064 l 340 1064 l 340 1083 m 86 555 l 92 555 l 92 549 q 79 536 92 536 l 73 536 l 73 543 q 86 555 75 555 m 47 403 l 60 403 l 60 383 l 47 383 l 47 403 z "},"o":{"ha":652,"x_min":-40,"x_max":692,"o":"m 372 970 l 397 964 l 442 970 q 564 867 466 970 q 583 893 583 867 q 596 880 596 891 l 577 848 l 590 848 q 603 867 590 867 l 629 867 l 616 848 l 616 842 q 686 682 656 842 q 692 604 686 624 q 564 199 656 350 q 410 64 425 64 q 217 0 353 19 q -40 353 2 0 q 5 559 -23 559 q 63 745 26 709 q 217 926 63 783 l 230 926 l 230 919 l 191 867 l 198 867 q 378 945 286 945 l 365 964 q 372 970 372 964 m 564 913 l 583 913 l 583 893 l 577 893 q 564 906 564 893 l 564 913 m 114 900 l 121 900 q 134 887 134 898 l 134 880 q 101 861 134 869 l 95 874 l 95 880 q 114 900 95 890 m 570 836 l 570 829 q 596 791 588 791 l 596 823 q 583 836 596 836 l 570 836 m 551 829 q 532 804 542 804 q 526 810 526 804 q 487 797 505 797 l 442 810 l 378 810 q 178 610 306 810 l 185 597 q 172 585 185 585 q 165 591 172 591 l 172 559 q 140 463 161 540 q 146 340 146 393 l 146 321 l 153 289 q 134 251 142 289 q 191 161 157 195 l 204 167 q 281 141 208 167 l 288 141 q 442 251 336 141 q 532 437 478 308 l 526 450 q 545 495 538 469 q 538 514 538 507 q 551 527 551 514 l 551 591 q 570 617 564 617 l 564 630 q 590 688 576 688 l 596 688 l 596 591 l 603 591 l 603 675 l 596 707 q 609 726 609 707 q 551 829 564 825 m 146 251 l 165 251 q 191 193 165 230 q 178 180 191 180 q 146 251 146 235 z "},"p":{"ha":572,"x_min":3,"x_max":593,"o":"m 302 998 q 430 876 302 979 q 535 777 430 867 l 564 735 l 564 730 l 553 730 q 593 624 593 665 l 593 595 q 249 378 486 378 q 231 396 249 383 q 167 302 182 396 q 126 121 167 250 q 68 -71 97 53 l 50 -89 l 44 -89 q 79 98 58 29 l 68 104 q 79 168 68 112 l 79 174 l 73 174 q 21 5 41 26 l 15 5 l 15 63 q 3 75 15 75 l 15 127 q 9 180 9 159 q 79 507 9 259 l 73 531 q 103 706 98 701 q 132 876 119 706 l 138 876 l 149 869 l 149 893 l 126 916 l 126 922 q 167 928 144 922 q 173 922 167 922 l 179 963 l 191 963 q 202 928 191 928 q 220 975 202 971 l 237 975 q 260 951 246 975 q 296 998 296 960 l 302 998 m 302 958 q 372 887 302 937 l 372 893 q 307 958 366 893 l 302 958 m 302 764 q 278 648 278 668 l 284 618 q 267 601 275 618 l 284 601 l 284 595 q 237 507 267 575 l 249 513 l 260 513 q 267 507 267 513 q 383 560 329 517 q 441 601 412 560 l 441 618 q 401 671 417 646 l 401 677 l 430 654 q 302 764 393 710 m 570 636 l 570 630 q 576 607 576 620 l 582 607 l 582 618 q 576 636 576 630 l 570 636 z "},"q":{"ha":728,"x_min":-3,"x_max":729,"o":"m 472 973 q 729 621 687 973 q 684 415 712 415 q 626 229 662 265 q 575 139 626 218 q 600 75 600 100 l 594 75 l 581 81 l 581 68 q 588 49 588 56 l 581 49 q 568 68 568 49 l 562 68 l 562 62 q 613 -41 594 18 q 633 -60 623 -41 l 620 -66 q 639 -118 639 -98 l 626 -124 l 613 -124 q 492 49 606 -123 l 485 49 l 485 43 q 555 -73 533 -25 l 543 -79 q 440 62 440 50 q 312 30 358 30 l 325 11 q 318 4 318 11 l 292 11 l 248 4 q 125 107 224 4 q 106 81 106 107 q 94 94 94 81 l 113 126 l 100 126 q 87 107 100 107 l 62 107 l 75 126 l 75 132 q 3 299 28 138 q -3 370 3 347 q 113 755 32 609 q 453 967 292 967 q 472 973 453 973 m 222 665 q 485 325 269 611 q 511 363 494 347 l 504 376 q 517 389 506 389 q 524 382 517 382 l 517 415 q 549 511 528 434 q 543 633 543 581 l 543 652 l 536 684 q 555 723 547 684 q 498 812 532 779 l 485 806 l 408 832 l 401 832 q 235 697 292 795 q 222 665 224 697 m 511 793 q 543 723 543 739 l 524 723 q 498 781 524 744 q 511 793 500 793 m 138 447 l 138 382 q 119 357 125 357 l 125 345 q 100 287 114 287 l 94 287 l 94 382 l 87 382 l 87 299 l 94 267 q 81 248 81 267 q 138 145 125 149 q 158 171 148 171 q 164 165 164 171 q 203 178 185 178 l 248 165 l 312 165 l 357 178 q 170 473 196 417 l 164 473 q 138 447 154 473 m 420 357 q 472 299 420 342 l 472 306 l 420 357 m 94 184 l 94 152 q 106 139 96 139 l 119 139 l 119 145 q 94 184 102 184 m 549 132 l 549 120 l 562 113 q 555 132 555 125 l 549 132 m 106 81 l 113 81 q 125 68 125 79 l 125 62 l 106 62 l 106 81 z "},"r":{"ha":753,"x_min":-7,"x_max":823,"o":"m 231 937 q 329 897 321 897 q 336 903 336 897 l 369 897 l 408 897 l 408 884 l 395 884 l 395 878 l 401 878 l 441 890 q 461 884 454 884 q 488 890 476 884 q 777 831 777 867 q 823 713 823 805 q 777 660 795 660 l 751 653 l 751 647 l 758 647 q 777 653 770 653 l 777 640 q 467 548 671 594 l 467 534 q 593 502 480 534 l 593 495 l 586 482 q 705 403 705 456 q 678 205 692 241 l 665 205 q 678 277 678 261 l 678 298 l 672 298 q 606 47 637 84 l 580 -19 l 566 -19 l 566 -5 l 560 -5 l 560 -39 l 547 -39 l 534 -32 l 534 -58 l 514 -58 q 500 -5 514 -52 l 500 41 l 488 60 l 527 330 q 217 429 469 375 q 125 179 153 282 q 92 133 102 179 l 85 133 q 79 139 79 133 q 26 14 58 139 l 13 14 l 13 21 q 33 133 13 34 l 26 146 q 33 172 33 157 l 33 179 q 20 185 20 179 q 73 463 33 292 q 46 475 46 463 l 46 502 q 52 528 46 517 l 46 541 q 105 660 46 554 q 119 759 105 696 q 33 805 33 791 l -7 831 q 0 838 0 831 l 33 831 l 98 864 l 92 878 l 92 884 l 132 884 q 171 924 132 893 l 184 917 l 204 917 l 204 910 l 211 910 q 231 937 214 937 m 323 759 q 303 686 303 703 l 309 686 l 467 713 q 481 699 470 699 q 593 739 593 722 l 593 745 q 323 759 552 759 m 52 291 q 39 218 52 279 l 39 212 l 46 212 l 59 277 l 59 291 l 52 291 z "},"s":{"ha":545,"x_min":0,"x_max":545,"o":"m 388 977 l 413 958 q 438 964 427 958 q 513 914 498 914 q 545 845 543 878 q 363 645 545 734 q 332 676 353 676 l 332 688 l 338 701 q 326 713 326 701 l 345 739 q 332 751 332 739 q 395 839 352 756 l 382 833 l 351 839 l 313 833 l 313 839 q 188 789 212 789 q 163 745 163 772 l 163 739 l 200 682 l 200 676 l 188 676 q 175 695 188 695 l 175 688 q 326 526 176 677 l 313 519 q 300 532 313 532 l 300 526 q 488 332 488 369 q 507 294 496 332 q 500 288 507 288 l 507 244 q 407 75 507 182 q 388 69 395 69 l 395 56 l 395 50 q 294 12 369 50 l 275 12 l 275 25 l 263 25 q 238 0 263 0 l 238 6 l 244 19 l 238 19 q 219 12 219 19 q 94 56 94 21 q 25 194 66 56 l 25 200 l 37 200 q 25 238 37 211 q 31 244 25 244 l 25 275 l 25 294 l 50 294 l 50 300 q 69 413 50 325 l 81 413 l 81 382 l 87 382 l 87 426 l 100 426 q 163 169 120 169 q 213 151 167 151 l 219 151 q 351 225 278 151 l 319 300 q 244 407 290 300 l 200 451 l 194 451 q 263 345 263 370 l 256 345 l 138 469 l 144 482 q 12 639 70 534 q 25 651 25 639 q 0 751 0 697 l 0 783 q 326 977 119 977 l 388 977 z "},"t":{"ha":676,"x_min":0,"x_max":1010,"o":"m 361 977 l 421 950 q 749 937 636 937 q 796 943 770 937 q 1010 909 826 943 l 1010 897 l 983 897 q 956 903 968 897 q 937 897 943 897 q 930 903 930 897 q 909 897 923 903 q 749 909 891 897 l 736 909 l 736 903 q 803 883 803 903 l 796 869 l 850 869 l 850 857 l 909 857 l 909 843 q 675 796 711 829 q 515 783 559 783 q 428 789 432 789 q 374 415 408 597 l 361 415 l 368 428 q 361 509 361 475 l 355 509 q 301 180 355 347 l 288 180 q 294 234 288 208 l 294 248 l 288 248 q 261 168 276 168 l 254 168 l 261 194 l 261 208 l 254 208 q 220 73 254 172 q 208 47 220 47 q 201 54 208 54 q 187 0 201 43 l 168 0 q 154 20 154 0 q 187 227 187 191 l 187 254 l 180 254 q 154 94 180 214 l 140 94 l 140 100 q 147 168 140 109 l 140 180 q 254 789 214 604 l 174 789 q 140 769 140 789 l 80 769 q 33 796 44 769 q 40 803 33 803 l 26 829 q 33 836 33 829 q 14 850 14 836 q 26 863 26 850 l 14 863 l 14 876 l 26 876 l 26 883 q 0 897 0 883 q 60 916 60 905 q 20 943 35 916 q 80 963 56 963 q 294 956 238 956 l 301 970 l 315 963 l 341 963 l 361 977 m 174 843 l 174 836 l 214 836 l 214 843 l 174 843 m 274 415 l 274 374 l 281 374 l 281 415 l 274 415 m 268 368 l 268 341 l 274 341 l 274 368 l 268 368 m 194 321 l 194 294 l 201 294 l 201 321 l 194 321 m 301 308 l 301 281 l 308 281 l 308 308 l 301 308 z "},"u":{"ha":600,"x_min":0,"x_max":638,"o":"m 631 1017 l 638 1017 l 638 997 q 631 943 638 969 q 638 890 638 918 q 591 744 591 766 l 591 738 l 598 738 q 611 791 611 780 l 625 791 q 611 738 625 770 l 618 711 q 472 40 530 40 q 166 0 368 0 l 166 7 l 153 0 q 0 100 73 0 l 0 113 l 93 638 l 93 644 l 86 644 l 86 631 l 73 631 l 80 665 l 86 665 l 100 658 l 100 684 l 86 705 q 106 724 86 724 l 100 758 q 113 791 113 758 l 119 791 q 126 784 126 791 l 140 791 l 146 791 q 133 718 133 722 l 133 705 l 140 705 q 180 810 153 810 q 193 831 180 831 l 206 831 l 206 824 q 193 744 206 790 l 193 738 l 199 738 q 219 850 219 819 l 219 857 l 239 857 q 259 831 239 831 q 273 844 261 844 q 299 764 299 817 q 206 259 246 397 q 193 186 206 222 l 226 186 l 259 193 q 273 180 261 180 l 286 180 l 366 219 l 366 226 l 445 691 q 492 844 481 844 l 498 844 q 492 817 498 829 l 492 810 l 498 810 q 551 970 519 943 q 558 964 551 964 q 545 917 558 951 l 558 917 q 578 983 578 980 l 591 983 l 591 977 l 585 964 l 585 957 l 591 957 l 591 970 l 598 970 l 598 943 l 605 943 q 631 1017 618 1017 m 578 705 l 578 671 l 585 671 l 585 705 l 578 705 m 126 698 l 126 671 l 133 671 l 133 698 l 126 698 z "},"v":{"ha":563,"x_min":40,"x_max":667,"o":"m 602 998 q 615 978 615 998 l 608 952 q 615 926 615 941 q 660 959 621 926 l 667 959 q 634 907 644 907 q 667 829 667 854 q 628 610 639 792 q 589 481 624 608 l 589 461 q 544 519 544 461 l 538 519 l 538 500 l 524 500 q 511 558 524 528 q 524 591 524 579 q 311 248 311 258 l 298 248 l 298 255 l 305 268 l 305 274 l 298 274 q 279 216 279 223 q 292 203 292 214 q 208 16 249 78 q 143 3 202 16 q 66 54 66 28 q 47 100 66 71 q 53 119 47 119 l 47 151 l 47 158 q 79 313 79 264 l 79 326 l 73 326 l 60 229 l 47 229 q 60 416 60 316 l 60 422 q 40 435 49 422 l 47 468 l 47 829 q 66 920 47 897 l 66 991 l 79 991 l 79 926 l 85 895 l 92 895 l 92 959 l 104 959 l 104 939 q 137 907 104 907 q 150 920 139 920 q 195 804 195 905 l 208 810 q 234 610 234 661 l 234 604 q 227 597 234 597 q 234 591 227 591 q 214 513 227 526 l 214 461 l 201 461 l 201 545 l 195 545 l 195 494 q 214 384 199 384 q 337 629 337 616 l 350 629 l 337 584 l 337 578 l 344 578 q 518 901 434 825 l 524 901 l 524 888 l 576 978 l 602 998 m 564 823 q 557 804 564 817 l 557 798 l 564 798 q 570 817 564 804 l 570 823 l 564 823 m 473 694 q 518 778 486 694 q 473 694 488 756 m 447 720 q 415 655 447 704 l 415 649 q 454 713 435 663 l 454 720 l 447 720 m 195 668 l 195 636 l 201 636 l 201 668 l 195 668 m 318 300 l 318 294 q 331 307 331 294 l 331 313 q 318 300 318 311 z "},"w":{"ha":1029,"x_min":1,"x_max":1130,"o":"m 255 995 l 267 995 l 243 685 l 243 660 l 249 660 q 311 914 269 840 q 317 889 317 903 l 323 889 q 348 939 323 930 q 354 932 348 932 q 292 524 336 753 q 298 498 298 513 q 280 449 280 494 l 280 424 l 286 424 q 391 585 286 445 l 397 585 q 367 524 367 537 q 534 790 505 705 l 534 821 q 553 908 534 885 l 553 976 l 565 976 l 565 914 l 572 883 l 578 883 l 578 945 l 590 945 l 590 926 q 621 896 590 896 q 633 908 623 908 q 677 840 657 906 q 720 772 712 840 q 714 597 714 621 l 708 597 q 714 591 708 591 q 683 455 696 473 l 683 406 q 696 393 685 393 q 813 629 813 616 l 826 629 l 813 585 l 813 579 l 819 579 q 987 889 907 817 l 994 889 l 994 877 l 1043 964 l 1067 983 q 1080 964 1080 983 l 1074 939 q 1080 914 1080 928 q 1124 945 1086 914 l 1130 945 q 1099 896 1108 896 q 1130 815 1130 846 q 987 610 1130 800 q 789 262 987 576 l 776 262 l 776 269 l 783 281 l 783 288 l 776 288 q 758 232 758 239 q 770 219 770 230 q 689 39 728 99 q 627 27 684 39 q 547 108 547 41 q 534 120 534 108 q 541 139 534 139 l 534 170 l 534 176 l 565 288 q 559 307 559 300 l 553 307 q 547 244 553 266 l 534 244 l 547 362 l 522 380 q 534 443 534 433 q 515 399 522 443 l 503 399 l 528 517 q 367 313 401 335 l 243 151 l 243 157 l 249 170 l 249 176 l 243 176 q 119 -10 199 60 l 56 -10 q 1 15 9 -10 q 50 269 1 66 l 62 269 l 56 238 l 56 226 l 62 226 q 113 536 113 468 l 125 536 l 125 524 l 131 524 l 131 561 l 119 579 l 131 585 q 137 579 131 579 l 193 883 l 205 883 l 205 827 l 212 827 q 224 932 224 926 l 237 932 l 237 908 l 243 908 q 255 989 255 964 l 255 995 m 342 970 l 354 970 l 354 951 l 342 951 l 342 970 m 1030 815 q 1024 796 1030 808 l 1024 790 l 1030 790 q 1037 808 1030 797 l 1037 815 l 1030 815 m 943 691 q 987 772 956 691 q 943 691 958 751 m 919 715 q 888 654 919 700 l 888 648 q 925 709 907 661 l 925 715 l 919 715 m 94 455 l 100 455 l 100 449 q 87 437 100 437 l 81 437 l 81 443 q 94 455 83 455 m 795 313 l 795 307 q 807 319 807 307 l 807 325 q 795 313 795 323 m 56 307 l 69 307 l 69 288 l 56 288 l 56 307 z "},"x":{"ha":688,"x_min":-12,"x_max":732,"o":"m 119 989 q 194 882 149 935 l 194 889 q 182 926 182 909 q 351 645 220 889 q 388 713 351 654 q 500 870 421 713 l 513 870 l 513 857 l 519 857 q 563 920 519 875 q 575 907 565 907 q 600 939 575 926 l 606 926 q 575 882 599 926 l 575 876 q 631 932 580 876 l 694 876 q 726 920 710 916 l 732 907 l 732 901 q 663 789 717 886 l 675 789 q 701 826 677 812 l 707 826 l 707 820 q 425 458 625 675 q 575 126 447 386 q 588 89 588 106 l 582 89 q 650 -68 650 -41 l 650 -80 l 638 -80 l 544 89 q 500 151 517 89 l 488 151 q 569 -30 569 -14 l 550 -30 q 481 45 550 -9 q 413 132 481 60 q 300 332 305 332 q 138 126 275 277 q 69 52 95 102 q -12 -18 10 -18 l -12 -12 q 100 145 29 70 l 94 157 l 132 214 l 132 220 q 0 76 7 77 l -6 89 l 25 145 q 19 163 19 157 q 100 314 29 163 l 225 470 q 144 602 189 538 q 151 626 151 612 l 50 770 l 63 777 q 69 770 63 770 l 69 777 l 38 826 l 38 845 l 50 839 l 32 870 q 44 882 33 882 q 63 857 54 857 l 75 857 q 50 907 50 895 q 94 926 73 926 q 113 920 106 920 l 125 939 l 106 970 l 106 977 q 119 989 109 989 z "},"y":{"ha":694,"x_min":9,"x_max":709,"o":"m 98 998 q 174 890 127 943 l 174 897 q 161 935 161 918 q 356 576 254 819 l 356 563 l 362 563 q 513 752 372 563 q 570 808 524 752 q 633 878 591 808 q 709 941 686 941 l 709 935 q 595 777 667 853 l 602 764 l 564 708 l 564 701 q 696 846 688 846 l 703 833 l 671 777 q 677 758 677 765 q 595 607 667 758 q 444 406 444 422 l 425 304 l 413 304 l 419 317 l 413 380 l 406 380 q 356 84 406 245 l 343 84 q 350 134 343 110 l 350 147 l 343 147 q 318 71 332 71 l 312 71 l 318 96 l 318 109 l 312 109 q 281 -17 312 76 q 268 -42 281 -42 q 262 -36 268 -36 q 249 -86 262 -46 l 230 -86 q 218 -67 218 -86 q 249 128 249 94 l 249 153 l 243 153 q 218 2 243 115 l 205 2 l 205 8 q 211 71 205 16 l 205 84 q 255 399 255 346 q 205 469 255 427 q 123 607 205 486 q 130 632 130 618 l 28 777 l 41 783 q 47 777 41 777 l 47 783 l 16 833 l 16 852 l 28 846 l 9 878 q 22 890 12 890 q 41 865 32 865 l 54 865 q 28 916 28 903 q 73 935 52 935 q 92 928 85 928 l 104 947 l 85 979 l 85 985 q 98 998 87 998 m 325 260 l 325 235 l 331 235 l 331 260 l 325 260 m 255 216 l 255 191 l 262 191 l 262 216 l 255 216 m 356 203 l 356 178 l 362 178 l 362 203 l 356 203 z "},"z":{"ha":716,"x_min":-205,"x_max":888,"o":"m 616 964 l 673 964 q 717 939 707 964 q 711 932 717 932 l 724 907 q 717 901 717 907 q 736 888 736 901 q 724 876 724 886 l 736 876 l 736 863 l 724 863 l 724 857 q 749 844 749 857 q 692 825 692 837 q 730 800 715 825 q 667 781 697 781 l 629 781 q 401 496 526 631 q 149 199 222 313 l 149 193 l 205 193 q 218 206 218 193 l 231 199 l 256 199 l 275 212 l 332 187 q 642 174 534 174 q 686 180 661 174 q 888 149 714 180 l 888 136 l 863 136 q 837 143 848 136 q 819 136 825 136 q 812 143 812 136 q 793 136 805 143 q 642 149 775 136 l 629 149 l 629 143 q 692 124 692 143 l 686 111 l 736 111 l 736 98 l 793 98 l 793 86 q 572 41 605 73 q 420 29 462 29 l 345 35 l 313 29 q 243 41 259 41 q 193 29 193 37 l 149 35 l 98 35 q 66 16 66 35 l 9 16 l -22 23 q -79 -28 -45 -28 l -79 -22 q -35 67 -35 42 q -41 73 -41 67 q -35 79 -35 73 l -47 79 l -66 67 l -73 79 l -47 124 q -66 136 -66 124 q -54 149 -54 136 q -60 155 -60 149 q -35 162 -49 162 l -47 180 q 16 282 -16 180 l 231 553 q 332 718 231 572 q 389 781 357 718 q 351 793 365 781 q 41 806 148 806 q -3 800 22 806 q -205 831 -32 800 l -205 844 l -180 844 q -155 838 -166 844 q -136 844 -142 844 q -130 838 -130 844 q -111 844 -123 838 q 41 831 -93 844 l 54 831 l 54 838 q -9 857 -9 838 l -3 869 l -54 869 l -54 882 l -111 882 l -111 895 q 111 939 77 907 q 262 951 220 951 l 338 945 l 370 951 q 439 939 423 939 q 490 951 490 943 l 534 945 l 585 945 q 616 964 616 945 m 98 86 l 98 79 l 136 79 l 136 86 l 98 86 z "},"{":{"ha":468,"x_min":0,"x_max":569,"o":"m 258 989 q 271 976 260 976 l 291 976 l 304 982 q 323 969 304 969 q 530 976 497 976 q 562 950 559 963 q 511 924 527 924 l 511 918 q 569 905 569 918 q 536 899 558 899 l 536 892 l 549 892 l 549 879 l 530 879 l 536 866 q 504 827 504 846 l 491 827 l 491 821 l 504 821 l 504 808 q 439 789 463 789 l 388 789 q 375 808 388 808 l 291 808 q 252 614 278 808 q 168 181 252 610 l 245 181 q 278 200 278 181 l 336 200 q 381 174 371 200 q 375 168 381 168 l 388 142 q 381 136 381 142 q 401 123 401 136 q 388 110 388 121 l 401 110 l 401 97 l 388 97 l 388 90 q 414 77 414 90 q 355 58 355 70 q 394 33 379 58 q 336 13 359 13 q 130 20 184 20 l 123 7 l 110 13 l 84 13 l 64 0 l 7 26 l 13 58 l 13 97 q 0 168 13 143 q 33 439 7 259 l 20 446 q 161 892 117 853 q 258 989 176 989 m 323 866 l 323 859 l 349 853 l 375 853 l 375 859 q 330 866 338 859 l 323 866 m 207 136 l 207 130 l 245 130 l 245 136 l 207 136 z "},"|":{"ha":222,"x_min":-22,"x_max":284,"o":"m 267 983 q 273 966 273 972 l 267 926 q 273 920 267 920 l 267 892 l 267 864 l 273 864 l 273 898 l 284 898 q 142 320 284 753 q 92 117 120 195 q 63 26 63 59 q 24 -71 36 -71 l 18 -71 q 52 111 31 43 l 41 117 q 52 178 41 124 l 52 184 l 46 184 q -5 20 14 41 l -10 20 l -10 77 q -22 88 -10 88 l -10 139 q -16 190 -16 170 q 52 507 -16 267 l 46 530 q 75 700 71 694 q 103 864 90 700 l 109 864 l 120 858 l 125 915 l 137 915 l 137 903 l 142 903 q 148 949 148 944 l 159 949 l 159 915 l 171 915 q 188 960 171 956 l 205 960 q 233 937 230 937 l 244 937 q 261 983 256 937 l 267 983 z "},"}":{"ha":545,"x_min":0,"x_max":569,"o":"m 310 0 q 297 13 308 13 l 278 13 l 265 7 q 245 20 265 20 q 39 13 72 13 q 7 39 9 26 q 58 64 41 64 l 58 71 q 0 84 0 71 q 33 90 11 90 l 33 97 l 20 97 l 20 110 l 39 110 l 33 123 q 64 161 64 143 l 77 161 l 77 168 l 64 168 l 64 181 q 130 200 106 200 l 181 200 q 194 181 181 181 l 278 181 q 317 375 291 181 q 401 808 317 379 l 323 808 q 291 789 291 808 l 233 789 q 187 814 198 789 q 194 821 187 821 l 181 846 q 187 853 187 846 q 168 866 168 853 q 181 879 181 868 l 168 879 l 168 892 l 181 892 l 181 899 q 155 911 155 899 q 213 930 213 919 q 174 956 189 930 q 233 976 210 976 q 439 969 385 969 l 446 982 l 459 976 l 485 976 l 504 989 l 562 963 l 556 930 l 556 892 q 569 821 556 846 q 536 549 562 730 l 549 543 q 407 97 452 136 q 310 0 393 0 m 245 123 l 245 130 l 220 136 l 194 136 l 194 130 q 239 123 231 130 l 245 123 m 362 853 l 362 859 l 323 859 l 323 853 l 362 853 z "},"":{"ha":728,"x_min":0,"x_max":0,"o":""},"":{"ha":733,"x_min":0,"x_max":0,"o":""}}}
